<svg xmlns="http://www.w3.org/2000/svg" width="400" height="400" viewBox="0 0 400 NaN" fill-rule="evenodd" xmlns:v="https://vecta.io/nano"><path d="M106.113 87.795l-42.13.099-1.23.872c-2.878 2.04-2.597-2.906-2.597 45.609s-.282 43.569 2.6 45.611l1.232.873h20.936 20.935v77.174l.435 77.986c.238.446.948 1.314 1.576 1.927l1.141 1.117h35.52 35.52l1.142-1.117c.628-.613 1.337-1.481 1.576-1.927.458-.857.628-13.184.197-14.307-.21-.549-1.886-.618-14.863-.618-15.509 0-15.701-.021-17.855-1.903-1.661-1.451-1.607 2.014-1.81-117.043l-.196-114.453-42.129.1" fill="#2cacfc"/><path d="M149.984 71.428c-.546.571-1.137 1.272-1.312 1.556-.606.979-.269 242.853.339 244.31 1.535 3.673 2.175 3.8 19.134 3.8 8.067 0 14.667.132 14.667.293s8.635.245 19.189.188c20.904-.115 19.739.003 22.058-2.234 1.307-1.261 1.332-1.903 1.332-34.738v-32.635l18.457-.152c11.388-.095 19.504-.326 21.191-.605l4.492-.674c.967-.122 1.925-.381 2.129-.575s.941-.353 1.637-.353 1.375-.175 1.508-.39.605-.391 1.051-.391c.706 0 6.506-1.801 8.714-2.706 4.093-1.677 11.11-5.119 12.961-6.358.898-.601 1.743-1.092 1.877-1.092.58 0 7.719-5.154 11.334-8.181 3.473-2.909 11.551-11.457 13.454-14.238.31-.453.676-.911.813-1.019.489-.383 4.288-6.221 4.288-6.59 0-.207.132-.434.293-.506.367-.163 1.635-2.244 1.925-3.158.119-.376.372-.683.562-.683s.345-.352.345-.781.176-.782.391-.782.39-.351.39-.781.176-.781.391-.781.39-.352.39-.781.176-.782.391-.782.391-.266.391-.591.175-.94.39-1.367l.782-1.552c.214-.427.39-1.042.39-1.367s.176-.591.391-.591.39-.429.39-.954.176-1.062.391-1.195.391-.66.391-1.172.175-1.039.39-1.172.391-.66.391-1.171.156-1.028.347-1.146.442-.787.558-1.488a46.21 46.21 0 0 1 .654-3.03 50.55 50.55 0 0 0 .74-3.623c.164-1.026.504-2.072.757-2.324.657-.657.657-31.2 0-31.857-.253-.252-.593-1.298-.757-2.324a50.41 50.41 0 0 0-.74-3.622c-.244-.967-.538-2.331-.654-3.031s-.367-1.37-.558-1.488-.347-.634-.347-1.146-.176-1.039-.391-1.171-.39-.661-.39-1.172-.176-1.039-.391-1.172-.391-.671-.391-1.195-.175-.954-.39-.954-.391-.266-.391-.591-.176-.94-.39-1.367l-.782-1.552c-.215-.427-.39-1.042-.39-1.367s-.176-.591-.391-.591-.391-.352-.391-.782-.175-.781-.39-.781-.391-.351-.391-.781-.176-.781-.39-.781-.391-.337-.391-.749-.132-.807-.293-.879c-.367-.163-1.635-2.244-1.925-3.158-.119-.376-.372-.683-.562-.683s-.345-.184-.345-.408c0-.392-3.774-6.221-4.288-6.623-.137-.108-.503-.566-.813-1.019-1.903-2.781-9.981-11.329-13.454-14.238-3.615-3.027-10.754-8.181-11.334-8.181-.134 0-.979-.491-1.877-1.092-1.507-1.009-6.186-3.368-10.422-5.255-2.725-1.214-3.135-1.368-6.054-2.272-1.504-.465-3.04-1.001-3.413-1.192s-1.11-.345-1.637-.345-1.068-.176-1.2-.391-.836-.39-1.563-.39-1.43-.176-1.562-.391-.989-.391-1.902-.391-2.001-.258-2.418-.573c-.659-.499-8.316-.57-58.571-.548l-57.812.026-.993 1.039" fill="#2464e4"/></svg>