<svg id="svg" version="1.1" xmlns="http://www.w3.org/2000/svg" xmlns:xlink="http://www.w3.org/1999/xlink" width="400" height="398.75000000000006" viewBox="0, 0, 400,398.75000000000006"><g id="svgg"><path id="path0" d="M185.444 82.983 C 185.915 83.313,185.855 83.350,185.163 83.156 C 184.662 83.015,183.889 83.163,183.368 83.498 C 182.865 83.822,181.312 84.168,179.918 84.266 C 178.422 84.373,177.605 84.306,177.924 84.104 C 178.281 83.878,177.948 83.759,176.946 83.755 C 176.045 83.751,175.526 83.909,175.670 84.143 C 175.814 84.376,175.638 84.431,175.237 84.278 C 174.841 84.126,174.378 84.264,174.120 84.612 C 173.607 85.303,171.884 85.838,171.884 85.307 C 171.884 85.108,171.167 84.945,170.289 84.945 C 169.412 84.945,168.694 85.108,168.694 85.307 C 168.694 85.505,168.335 85.574,167.896 85.460 C 167.359 85.319,167.099 85.447,167.099 85.853 C 167.099 86.565,166.032 87.073,165.692 86.523 C 165.562 86.313,164.828 86.142,164.061 86.142 C 163.293 86.142,162.768 86.309,162.894 86.513 C 163.020 86.717,162.914 87.014,162.657 87.173 C 162.352 87.361,162.297 87.288,162.498 86.962 C 162.712 86.616,162.578 86.513,162.061 86.625 C 161.651 86.714,161.347 86.959,161.385 87.170 C 161.423 87.383,160.737 87.484,159.837 87.398 C 158.717 87.292,158.305 87.381,158.495 87.689 C 158.672 87.976,158.443 88.099,157.850 88.035 C 157.343 87.981,156.963 88.128,157.005 88.362 C 157.050 88.615,156.605 88.718,155.908 88.616 C 155.216 88.514,154.736 88.624,154.736 88.883 C 154.736 89.125,154.422 89.293,154.038 89.258 C 152.945 89.157,150.748 89.790,150.748 90.206 C 150.748 90.413,150.398 90.471,149.971 90.335 C 149.468 90.176,148.902 90.380,148.369 90.913 C 147.763 91.519,147.267 91.667,146.495 91.473 C 145.762 91.289,145.529 91.346,145.724 91.662 C 145.904 91.953,145.783 92.030,145.387 91.878 C 144.982 91.722,144.656 91.952,144.435 92.549 C 144.215 93.145,144.000 93.296,143.811 92.989 C 143.652 92.733,143.253 92.522,142.924 92.522 C 142.595 92.522,142.435 92.700,142.569 92.917 C 142.709 93.142,142.550 93.210,142.198 93.075 C 141.836 92.936,141.481 93.101,141.338 93.475 C 141.162 93.932,140.807 94.040,140.078 93.857 C 139.426 93.694,139.154 93.750,139.318 94.014 C 139.459 94.242,139.267 94.402,138.889 94.372 C 138.512 94.342,138.200 94.526,138.195 94.782 C 138.190 95.038,138.022 95.397,137.822 95.580 C 137.611 95.773,137.580 95.703,137.746 95.414 C 137.937 95.082,137.751 94.915,137.188 94.915 C 136.724 94.915,136.442 95.074,136.562 95.269 C 136.683 95.464,136.469 95.598,136.087 95.568 C 135.706 95.538,135.433 95.719,135.480 95.971 C 135.531 96.242,135.246 96.345,134.782 96.224 C 134.331 96.106,133.998 96.218,133.998 96.487 C 133.998 96.745,133.826 96.850,133.615 96.720 C 133.182 96.452,131.688 97.210,130.886 98.106 C 130.566 98.462,130.459 98.491,130.620 98.176 C 130.845 97.739,130.747 97.738,130.052 98.172 C 129.590 98.460,129.212 98.843,129.212 99.023 C 129.212 99.202,129.037 99.241,128.822 99.108 C 128.258 98.759,126.748 99.662,127.058 100.162 C 127.229 100.439,127.010 100.486,126.421 100.299 C 125.861 100.122,125.616 100.164,125.768 100.411 C 125.903 100.629,125.701 100.783,125.320 100.753 C 124.938 100.723,124.672 100.926,124.729 101.205 C 124.828 101.694,122.989 102.703,122.292 102.543 C 121.537 102.370,120.394 102.996,120.579 103.480 C 120.713 103.829,120.528 103.932,120.010 103.797 C 119.588 103.686,119.242 103.791,119.242 104.029 C 119.242 104.267,118.973 104.358,118.644 104.232 C 118.315 104.106,118.046 104.201,118.046 104.444 C 118.046 104.687,117.820 104.885,117.543 104.885 C 117.267 104.885,116.594 105.300,116.048 105.806 C 115.502 106.312,114.875 106.806,114.656 106.903 C 114.437 107.000,114.290 107.176,114.329 107.295 C 114.369 107.414,114.049 107.538,113.619 107.570 C 113.189 107.603,112.144 108.178,111.296 108.850 C 110.449 109.521,109.647 110.070,109.515 110.070 C 108.973 110.070,104.296 113.786,104.397 114.136 C 104.457 114.345,104.315 114.397,104.080 114.253 C 103.396 113.830,102.328 114.894,102.972 115.356 C 103.334 115.617,103.260 115.653,102.724 115.478 C 102.303 115.340,101.854 115.376,101.727 115.557 C 101.600 115.738,100.419 116.758,99.103 117.822 C 97.787 118.887,96.759 119.924,96.819 120.128 C 96.880 120.331,96.761 120.394,96.556 120.267 C 96.077 119.971,91.275 124.420,91.566 124.890 C 91.686 125.085,91.636 125.218,91.455 125.187 C 90.613 125.041,90.163 125.288,89.928 126.028 C 89.788 126.470,89.535 126.746,89.366 126.641 C 88.910 126.359,86.476 129.010,86.832 129.402 C 87.001 129.587,86.935 129.623,86.685 129.480 C 86.135 129.166,85.230 130.150,85.647 130.609 C 85.809 130.789,85.738 130.819,85.489 130.677 C 84.950 130.369,84.023 131.348,84.450 131.775 C 84.613 131.937,84.528 132.011,84.262 131.938 C 83.679 131.777,79.074 136.210,78.744 137.250 C 78.616 137.655,78.324 137.986,78.096 137.986 C 77.868 137.986,77.788 138.265,77.919 138.605 C 78.055 138.960,77.988 139.120,77.762 138.980 C 77.541 138.843,77.368 139.194,77.368 139.781 C 77.368 140.355,77.522 140.729,77.711 140.613 C 78.067 140.393,78.046 140.897,77.565 144.068 C 77.360 145.414,77.413 145.962,77.745 145.962 C 78.002 145.962,78.109 146.129,77.983 146.334 C 77.857 146.538,78.114 146.958,78.555 147.267 C 78.996 147.576,79.261 147.924,79.145 148.041 C 78.772 148.413,84.611 153.944,85.088 153.671 C 85.339 153.528,85.410 153.558,85.248 153.738 C 84.843 154.184,85.732 155.189,86.248 154.869 C 86.477 154.728,86.550 154.796,86.412 155.020 C 86.092 155.537,87.489 156.834,87.933 156.432 C 88.115 156.267,88.147 156.336,88.005 156.585 C 87.702 157.115,88.673 158.054,89.091 157.636 C 89.247 157.480,89.253 157.668,89.105 158.055 C 88.880 158.640,89.011 158.725,89.889 158.566 C 90.501 158.455,90.845 158.535,90.708 158.755 C 90.579 158.964,90.261 159.009,90.002 158.853 C 89.743 158.698,89.784 158.883,90.094 159.264 C 90.403 159.645,90.888 159.868,91.170 159.759 C 91.480 159.641,91.602 159.776,91.478 160.100 C 91.364 160.395,91.491 160.773,91.759 160.939 C 92.069 161.130,92.144 161.074,91.965 160.784 C 91.785 160.493,91.898 160.411,92.277 160.556 C 92.604 160.681,92.788 161.000,92.686 161.265 C 92.454 161.870,94.715 164.079,95.237 163.757 C 95.449 163.625,95.598 163.811,95.568 164.169 C 95.538 164.527,95.783 164.897,96.112 164.992 C 96.643 165.146,96.643 165.118,96.112 164.742 C 95.728 164.471,95.687 164.317,95.998 164.313 C 96.264 164.310,96.686 164.688,96.935 165.153 C 97.290 165.817,97.280 165.932,96.887 165.689 C 96.553 165.483,96.487 165.542,96.689 165.868 C 96.854 166.136,97.197 166.276,97.450 166.179 C 97.703 166.082,98.173 166.283,98.494 166.626 C 99.012 167.181,98.990 167.218,98.292 166.956 C 97.784 166.765,97.974 167.090,98.828 167.877 C 99.555 168.545,100.321 169.093,100.532 169.093 C 100.742 169.093,101.116 169.536,101.363 170.077 C 101.610 170.619,101.965 170.967,102.152 170.851 C 102.339 170.736,102.493 170.825,102.493 171.049 C 102.493 171.274,103.317 172.248,104.325 173.213 L 106.157 174.969 109.280 174.896 C 112.361 174.825,113.931 174.243,113.394 173.373 C 113.252 173.144,113.328 173.075,113.561 173.219 C 113.794 173.364,116.558 170.924,119.704 167.798 C 122.850 164.671,124.885 162.562,124.227 163.111 L 123.031 164.108 123.986 163.023 C 124.512 162.427,125.085 162.027,125.260 162.135 C 125.699 162.407,128.215 159.830,128.215 159.109 C 128.215 158.788,128.485 158.520,128.814 158.514 C 129.699 158.499,132.012 156.667,131.727 156.206 C 131.592 155.988,131.668 155.924,131.895 156.065 C 132.123 156.205,132.824 155.922,133.453 155.434 C 134.082 154.947,134.838 154.367,135.133 154.144 C 135.428 153.921,136.073 153.371,136.567 152.921 C 137.061 152.471,137.657 152.167,137.891 152.245 C 138.125 152.323,138.433 152.022,138.575 151.575 C 138.716 151.129,139.046 150.805,139.306 150.856 C 139.567 150.906,139.731 150.709,139.671 150.419 C 139.611 150.129,139.745 150.005,139.970 150.143 C 140.195 150.282,140.379 150.226,140.379 150.018 C 140.379 149.810,140.693 149.665,141.077 149.695 C 141.461 149.726,141.742 149.564,141.703 149.335 C 141.663 149.106,142.022 148.890,142.500 148.855 C 142.979 148.819,143.643 148.454,143.976 148.043 C 144.309 147.633,144.786 147.365,145.036 147.448 C 145.285 147.531,145.730 147.276,146.025 146.880 C 146.319 146.485,146.785 146.144,147.059 146.122 C 148.273 146.024,148.428 145.930,148.228 145.409 C 148.079 145.021,148.245 144.916,148.784 145.057 C 149.206 145.167,149.551 145.063,149.551 144.825 C 149.551 144.587,149.821 144.495,150.150 144.621 C 150.479 144.748,150.748 144.652,150.748 144.410 C 150.748 144.167,151.117 143.968,151.569 143.968 C 152.021 143.968,152.292 143.809,152.171 143.614 C 152.051 143.420,152.265 143.285,152.646 143.315 C 153.028 143.345,153.301 143.164,153.254 142.912 C 153.203 142.641,153.487 142.538,153.952 142.660 C 154.403 142.778,154.736 142.666,154.736 142.396 C 154.736 142.138,154.907 142.033,155.116 142.162 C 155.325 142.291,155.867 142.079,156.320 141.691 C 156.773 141.303,157.365 140.965,157.635 140.939 C 158.584 140.849,159.920 140.282,159.920 139.971 C 159.920 139.798,160.307 139.757,160.780 139.881 C 161.365 140.034,161.550 139.959,161.358 139.649 C 161.168 139.342,161.302 139.279,161.763 139.456 C 162.297 139.660,162.392 139.565,162.187 139.032 C 162.030 138.622,162.083 138.442,162.318 138.587 C 162.534 138.721,162.712 138.641,162.712 138.408 C 162.712 138.176,162.981 137.986,163.310 137.986 C 163.639 137.986,163.908 138.166,163.908 138.385 C 163.908 138.604,164.188 138.784,164.530 138.784 C 164.872 138.784,165.042 138.606,164.908 138.389 C 164.763 138.155,164.943 138.102,165.353 138.259 C 165.890 138.465,165.982 138.369,165.771 137.821 C 165.531 137.195,165.681 137.148,167.148 137.396 C 168.424 137.612,168.725 137.561,168.483 137.170 C 168.268 136.822,168.332 136.766,168.693 136.988 C 169.016 137.188,169.400 137.055,169.706 136.637 C 170.217 135.938,172.085 135.345,171.672 136.013 C 171.544 136.221,171.908 136.391,172.483 136.391 C 173.069 136.391,173.420 136.218,173.283 135.997 C 173.146 135.775,173.297 135.701,173.628 135.828 C 173.982 135.964,174.402 135.707,174.682 135.183 C 175.023 134.545,175.267 134.430,175.590 134.753 C 176.201 135.363,178.403 135.341,178.024 134.728 C 177.827 134.409,177.958 134.346,178.435 134.530 C 179.300 134.862,180.156 134.427,179.471 134.004 C 179.129 133.792,179.173 133.642,179.628 133.468 C 179.975 133.335,180.259 133.399,180.259 133.612 C 180.259 133.824,181.524 133.998,183.074 133.998 C 185.031 133.998,185.806 133.863,185.617 133.557 C 185.428 133.251,185.718 133.197,186.562 133.383 C 187.564 133.603,187.865 133.494,188.250 132.773 C 188.566 132.183,188.814 132.048,189.007 132.361 C 189.218 132.702,192.296 132.796,200.526 132.714 C 209.580 132.624,211.796 132.705,211.960 133.132 C 212.102 133.504,212.536 133.581,213.409 133.389 C 214.336 133.185,214.579 133.239,214.357 133.600 C 214.128 133.969,214.861 134.050,217.447 133.941 C 220.240 133.824,220.798 133.898,220.620 134.361 C 220.461 134.775,220.633 134.864,221.269 134.698 C 221.822 134.553,222.040 134.624,221.874 134.894 C 221.698 135.178,222.165 135.242,223.302 135.089 C 224.641 134.910,225.152 135.023,225.762 135.632 C 226.388 136.258,226.934 136.368,228.697 136.223 C 230.433 136.079,230.820 136.154,230.649 136.599 C 230.369 137.330,232.319 137.837,233.055 137.226 C 233.478 136.875,233.744 136.998,234.256 137.780 C 234.636 138.360,235.288 138.781,235.802 138.778 C 236.537 138.772,236.587 138.699,236.092 138.353 C 235.637 138.034,235.732 138.001,236.491 138.217 C 237.039 138.372,237.733 138.848,238.033 139.274 C 238.365 139.746,238.871 139.972,239.329 139.852 C 239.742 139.744,240.080 139.798,240.080 139.971 C 240.080 140.262,241.339 140.821,242.273 140.945 C 242.493 140.974,242.896 141.139,243.170 141.310 C 243.445 141.482,243.853 141.509,244.078 141.370 C 244.302 141.231,244.437 141.355,244.377 141.645 C 244.317 141.936,244.492 142.129,244.766 142.074 C 245.040 142.019,245.264 142.174,245.264 142.419 C 245.264 142.666,245.614 142.773,246.048 142.660 C 246.513 142.538,246.797 142.641,246.746 142.912 C 246.699 143.164,246.972 143.345,247.354 143.315 C 247.735 143.285,247.949 143.420,247.829 143.614 C 247.708 143.809,247.969 143.968,248.408 143.968 C 248.846 143.968,249.318 144.150,249.456 144.373 C 249.593 144.596,249.873 144.675,250.077 144.549 C 250.282 144.423,250.449 144.510,250.449 144.742 C 250.449 144.974,250.718 145.165,251.047 145.165 C 251.376 145.165,251.645 145.341,251.645 145.556 C 251.645 145.771,252.086 146.058,252.626 146.193 C 253.165 146.328,253.815 146.691,254.070 146.998 C 254.326 147.306,254.726 147.557,254.961 147.557 C 255.195 147.557,255.038 147.294,254.613 146.972 C 254.187 146.650,253.967 146.381,254.124 146.374 C 254.281 146.367,254.972 146.911,255.661 147.584 C 256.372 148.280,257.161 148.712,257.490 148.586 C 257.807 148.464,257.970 148.521,257.852 148.713 C 257.593 149.132,258.739 150.167,259.082 149.825 C 259.214 149.693,259.613 149.900,259.970 150.285 C 260.326 150.670,260.528 150.788,260.419 150.548 C 260.309 150.308,260.627 150.569,261.126 151.128 C 261.625 151.686,262.208 152.099,262.422 152.044 C 262.636 151.989,262.812 152.134,262.812 152.367 C 262.812 152.599,263.019 152.661,263.272 152.504 C 263.550 152.333,263.624 152.394,263.460 152.660 C 263.310 152.903,263.591 153.316,264.088 153.582 C 264.583 153.847,265.210 154.260,265.481 154.500 C 266.919 155.770,267.247 155.949,267.664 155.692 C 267.921 155.533,268.011 155.586,267.870 155.813 C 267.733 156.035,268.365 156.814,269.274 157.545 C 270.183 158.276,270.793 158.616,270.628 158.300 C 270.464 157.985,270.610 158.086,270.952 158.524 C 272.483 160.486,273.169 161.125,273.638 161.025 C 273.915 160.966,274.158 161.186,274.177 161.515 C 274.197 161.844,274.430 162.069,274.694 162.014 C 274.958 161.959,275.130 162.064,275.075 162.246 C 274.912 162.789,282.419 169.897,282.864 169.621 C 283.090 169.482,283.160 169.553,283.020 169.779 C 282.667 170.350,284.641 172.395,285.208 172.045 C 285.485 171.873,285.558 171.936,285.393 172.204 C 285.057 172.748,286.937 174.050,287.530 173.684 C 287.764 173.539,287.907 173.658,287.846 173.948 C 287.786 174.241,288.047 174.452,288.430 174.422 C 288.812 174.392,289.026 174.526,288.905 174.721 C 288.785 174.916,289.336 175.075,290.130 175.075 C 291.119 175.075,291.483 174.930,291.288 174.614 C 291.122 174.345,291.178 174.262,291.422 174.413 C 291.969 174.751,293.996 173.699,293.613 173.277 C 293.452 173.099,293.529 173.073,293.785 173.219 C 294.279 173.502,305.085 163.059,305.085 162.299 C 305.085 162.061,305.243 161.965,305.437 162.085 C 305.631 162.205,306.011 161.769,306.281 161.117 C 306.551 160.464,306.918 160.020,307.095 160.130 C 307.272 160.239,308.014 159.765,308.744 159.075 C 309.473 158.385,309.848 157.943,309.576 158.094 C 309.246 158.276,309.161 158.161,309.319 157.750 C 309.449 157.411,309.728 157.240,309.940 157.371 C 310.388 157.648,315.053 153.173,315.054 152.466 C 315.055 152.205,315.262 151.863,315.515 151.707 C 315.828 151.514,315.867 151.602,315.638 151.982 C 315.351 152.458,315.401 152.461,315.971 151.999 C 316.340 151.700,316.526 151.268,316.385 151.040 C 316.243 150.811,316.315 150.740,316.543 150.881 C 316.772 151.022,317.203 150.836,317.502 150.467 C 317.964 149.898,317.962 149.848,317.486 150.135 C 317.114 150.359,317.017 150.324,317.199 150.029 C 317.350 149.786,317.768 149.699,318.128 149.837 C 318.626 150.028,318.719 149.924,318.518 149.400 C 318.373 149.022,318.411 148.809,318.603 148.928 C 318.795 149.047,319.197 148.842,319.496 148.473 C 319.861 148.024,319.877 147.901,319.546 148.100 C 319.213 148.300,319.128 148.199,319.285 147.790 C 319.413 147.457,319.635 147.199,319.779 147.218 C 320.686 147.339,321.095 147.087,320.885 146.540 C 320.732 146.142,320.809 146.020,321.099 146.200 C 321.408 146.391,321.488 146.151,321.353 145.443 C 321.223 144.759,321.354 144.331,321.739 144.183 C 322.094 144.047,322.242 143.646,322.116 143.165 C 322.002 142.729,322.072 142.472,322.270 142.595 C 322.469 142.718,322.632 142.349,322.632 141.775 C 322.632 141.200,322.469 140.831,322.270 140.954 C 322.072 141.077,322.002 140.821,322.116 140.384 C 322.242 139.903,322.094 139.503,321.739 139.367 C 321.354 139.219,321.223 138.790,321.353 138.106 C 321.488 137.399,321.408 137.159,321.099 137.349 C 320.817 137.524,320.729 137.415,320.865 137.061 C 320.985 136.749,320.794 136.383,320.441 136.247 C 320.068 136.104,319.901 136.166,320.043 136.395 C 320.177 136.612,320.077 136.790,319.821 136.790 C 319.534 136.790,319.444 136.437,319.585 135.874 C 319.818 134.947,313.024 128.048,312.151 128.325 C 311.961 128.385,311.904 128.275,312.025 128.079 C 312.146 127.884,311.859 127.386,311.388 126.973 C 310.916 126.559,310.640 126.409,310.773 126.639 C 310.905 126.869,310.830 127.318,310.604 127.636 C 310.270 128.108,310.235 128.086,310.418 127.517 C 310.542 127.134,310.469 126.820,310.257 126.820 C 310.044 126.820,309.892 126.685,309.918 126.520 C 310.043 125.726,309.830 125.202,309.472 125.424 C 309.252 125.559,309.073 125.487,309.073 125.264 C 309.073 124.628,306.979 122.846,306.546 123.114 C 306.332 123.246,306.273 123.167,306.414 122.939 C 306.739 122.413,303.920 119.973,303.375 120.310 C 303.151 120.449,303.083 120.375,303.225 120.146 C 303.366 119.917,302.825 119.229,302.022 118.616 C 301.218 118.004,300.695 117.759,300.859 118.073 C 301.022 118.387,300.873 118.296,300.528 117.870 C 300.183 117.444,299.900 116.951,299.900 116.773 C 299.900 116.596,299.726 116.451,299.514 116.451 C 299.302 116.451,299.229 116.765,299.352 117.149 C 299.535 117.718,299.501 117.739,299.167 117.267 C 298.941 116.949,298.834 116.562,298.929 116.409 C 299.024 116.255,297.980 115.310,296.610 114.309 C 295.239 113.308,293.891 112.294,293.614 112.056 C 293.337 111.819,292.889 111.752,292.617 111.908 C 292.346 112.064,292.252 112.049,292.409 111.875 C 292.711 111.542,291.080 110.070,290.408 110.070 C 290.192 110.070,289.905 109.782,289.770 109.430 C 289.635 109.078,289.289 108.881,289.001 108.992 C 288.713 109.102,288.255 108.837,287.983 108.401 C 287.711 107.966,287.240 107.706,286.935 107.823 C 286.611 107.947,286.277 107.705,286.128 107.236 C 285.989 106.796,285.665 106.508,285.410 106.596 C 285.154 106.683,284.641 106.407,284.268 105.983 C 283.879 105.538,283.387 105.337,283.110 105.509 C 282.804 105.698,282.732 105.638,282.913 105.346 C 283.070 105.093,283.023 104.885,282.809 104.885 C 282.595 104.885,282.329 105.110,282.218 105.384 C 282.108 105.658,282.003 105.459,281.986 104.942 C 281.963 104.263,281.783 104.068,281.335 104.240 C 280.934 104.394,280.816 104.317,280.999 104.020 C 281.190 103.711,281.009 103.635,280.436 103.784 C 279.912 103.921,279.396 103.756,279.077 103.349 C 278.609 102.749,278.634 102.744,279.362 103.290 C 280.109 103.850,280.123 103.842,279.589 103.163 C 279.275 102.764,278.720 102.515,278.355 102.611 C 277.991 102.706,277.483 102.449,277.228 102.040 C 276.972 101.631,276.551 101.296,276.291 101.296 C 276.032 101.296,276.168 101.560,276.594 101.882 C 277.020 102.204,277.239 102.473,277.083 102.480 C 276.926 102.487,276.237 101.945,275.551 101.275 C 274.866 100.605,274.109 100.123,273.868 100.203 C 273.627 100.283,273.091 100.010,272.676 99.595 C 272.262 99.181,271.695 98.929,271.417 99.036 C 271.139 99.142,270.665 98.887,270.363 98.468 C 269.755 97.625,269.000 97.419,269.398 98.205 C 269.537 98.480,269.409 98.435,269.114 98.106 C 268.269 97.162,266.809 96.457,266.323 96.758 C 266.036 96.935,265.992 96.849,266.199 96.514 C 266.440 96.124,266.261 96.045,265.475 96.196 C 264.901 96.305,264.525 96.242,264.641 96.056 C 264.756 95.869,264.347 95.516,263.731 95.271 C 263.116 95.026,262.109 94.561,261.495 94.237 C 260.880 93.914,260.113 93.751,259.791 93.874 C 259.468 93.998,258.834 93.729,258.381 93.276 C 257.823 92.718,257.262 92.528,256.637 92.684 C 256.008 92.842,255.639 92.714,255.472 92.279 C 255.328 91.904,254.974 91.739,254.612 91.878 C 254.214 92.031,254.096 91.953,254.279 91.657 C 254.475 91.341,254.271 91.276,253.616 91.447 C 253.012 91.606,252.413 91.460,251.953 91.044 C 251.558 90.687,250.923 90.360,250.543 90.317 C 249.850 90.240,249.067 89.991,247.328 89.294 C 246.818 89.090,246.247 89.018,246.059 89.134 C 245.872 89.250,245.605 89.163,245.468 88.940 C 245.330 88.717,244.790 88.534,244.267 88.534 C 243.745 88.534,243.202 88.348,243.061 88.119 C 242.920 87.891,242.438 87.821,241.990 87.963 C 241.399 88.150,241.261 88.084,241.485 87.721 C 241.723 87.336,241.354 87.270,239.886 87.436 C 238.837 87.554,238.201 87.513,238.473 87.345 C 239.173 86.913,238.337 86.469,237.458 86.806 C 236.942 87.004,236.844 86.936,237.086 86.545 C 237.348 86.121,237.012 86.063,235.390 86.255 C 233.776 86.446,233.320 86.369,233.130 85.874 C 232.981 85.487,232.594 85.331,232.099 85.461 C 231.663 85.575,231.306 85.505,231.306 85.307 C 231.306 84.852,228.635 84.827,228.355 85.279 C 227.990 85.869,226.705 85.529,225.770 84.593 C 224.915 83.739,224.655 83.700,221.533 83.960 C 218.856 84.183,217.954 84.110,216.910 83.589 C 216.196 83.233,215.240 83.046,214.785 83.172 C 214.122 83.357,214.077 83.319,214.556 82.983 C 215.002 82.672,214.511 82.563,212.638 82.558 C 211.255 82.555,210.206 82.687,210.307 82.851 C 210.409 83.016,205.933 83.114,200.361 83.069 C 193.736 83.016,190.229 83.128,190.229 83.392 C 190.229 83.614,190.047 83.683,189.824 83.545 C 189.601 83.408,189.522 83.128,189.648 82.924 C 189.781 82.709,188.814 82.555,187.362 82.558 C 185.489 82.563,184.998 82.672,185.444 82.983 M201.303 132.289 C 200.704 132.380,199.627 132.382,198.910 132.293 C 198.194 132.204,198.684 132.130,200.000 132.128 C 201.316 132.125,201.903 132.198,201.303 132.289 M39.219 176.567 C 39.358 176.794,39.197 176.954,38.860 176.924 C 38.096 176.856,34.034 180.201,33.685 181.187 C 33.543 181.587,33.325 181.813,33.201 181.689 C 32.835 181.323,31.889 182.305,32.170 182.759 C 32.311 182.987,32.248 183.064,32.029 182.929 C 31.511 182.609,29.004 185.193,29.405 185.634 C 29.573 185.819,29.507 185.854,29.258 185.711 C 28.708 185.397,27.803 186.381,28.219 186.840 C 28.381 187.020,28.314 187.052,28.069 186.913 C 27.824 186.773,27.286 187.044,26.873 187.516 C 26.460 187.987,26.374 188.224,26.682 188.043 C 27.063 187.819,27.150 187.863,26.953 188.180 C 26.795 188.437,26.511 188.552,26.323 188.436 C 25.886 188.166,12.360 201.420,12.361 202.117 C 12.362 202.405,12.587 202.525,12.861 202.384 C 13.136 202.244,12.866 202.584,12.263 203.139 C 11.179 204.138,10.857 205.145,11.496 205.541 C 11.678 205.653,11.691 206.695,11.525 207.857 C 11.103 210.827,11.109 211.448,11.561 211.169 C 11.795 211.024,11.848 211.204,11.691 211.614 C 11.486 212.147,11.582 212.243,12.115 212.038 C 12.540 211.875,12.706 211.931,12.549 212.186 C 12.189 212.768,13.501 214.639,14.037 214.308 C 14.288 214.153,14.369 214.214,14.224 214.450 C 13.978 214.847,15.094 216.094,15.448 215.819 C 15.543 215.746,15.739 215.820,15.886 215.983 C 16.032 216.146,15.882 216.130,15.553 215.948 C 15.172 215.736,15.230 215.929,15.715 216.482 C 16.531 217.412,16.977 217.639,16.512 216.888 C 16.335 216.600,16.403 216.535,16.695 216.716 C 16.951 216.874,17.071 217.151,16.960 217.330 C 16.679 217.784,17.746 218.604,18.146 218.242 C 18.326 218.079,18.356 218.150,18.214 218.399 C 17.900 218.949,18.884 219.854,19.343 219.438 C 19.522 219.276,19.557 219.339,19.420 219.580 C 19.067 220.199,21.350 222.296,21.963 221.916 C 22.260 221.733,22.355 221.776,22.201 222.024 C 21.860 222.576,25.860 226.606,26.411 226.266 C 26.652 226.117,26.730 226.182,26.586 226.414 C 26.445 226.642,26.580 227.036,26.885 227.290 C 27.190 227.543,27.518 227.608,27.613 227.434 C 27.708 227.261,27.739 227.321,27.683 227.569 C 27.550 228.149,28.281 228.881,28.862 228.748 C 29.110 228.691,29.166 228.724,28.989 228.821 C 28.811 228.917,28.969 229.332,29.341 229.743 C 29.713 230.154,30.200 230.376,30.424 230.238 C 30.665 230.089,30.708 230.185,30.530 230.474 C 30.339 230.782,30.526 231.039,31.039 231.173 C 31.577 231.314,31.768 231.596,31.608 232.013 C 31.431 232.474,31.541 232.574,32.022 232.390 C 32.382 232.252,32.800 232.338,32.950 232.582 C 33.132 232.876,33.036 232.911,32.664 232.687 C 32.188 232.400,32.185 232.450,32.647 233.020 C 32.946 233.388,33.330 233.604,33.499 233.500 C 33.669 233.395,33.901 233.667,34.015 234.104 C 34.163 234.669,34.426 234.821,34.924 234.630 C 35.426 234.437,35.536 234.504,35.313 234.865 C 34.933 235.480,38.236 238.987,38.941 238.717 C 39.202 238.617,39.518 238.802,39.643 239.129 C 39.795 239.524,39.706 239.626,39.377 239.434 C 39.106 239.275,39.861 240.118,41.057 241.307 C 42.252 242.497,43.482 243.413,43.789 243.343 C 44.096 243.274,44.233 243.402,44.092 243.629 C 43.779 244.136,52.189 252.523,52.697 252.210 C 52.897 252.086,53.035 252.133,53.004 252.313 C 52.846 253.218,53.109 253.663,53.739 253.557 C 54.214 253.477,54.399 253.662,54.320 254.138 C 54.214 254.767,54.658 255.030,55.563 254.873 C 55.744 254.841,55.794 254.974,55.675 255.166 C 55.377 255.649,57.206 257.309,57.621 256.933 C 57.804 256.766,57.838 256.834,57.695 257.083 C 57.440 257.530,58.173 258.419,58.691 258.291 C 58.837 258.255,59.106 258.389,59.289 258.588 C 59.486 258.803,59.377 258.821,59.023 258.631 C 58.694 258.455,59.307 259.226,60.386 260.344 C 61.465 261.462,62.501 262.282,62.689 262.166 C 62.877 262.050,62.981 262.131,62.921 262.347 C 62.745 262.978,71.349 271.256,71.856 270.943 C 72.114 270.783,72.197 270.842,72.050 271.080 C 71.737 271.586,72.736 272.495,73.151 272.080 C 73.313 271.918,73.387 272.054,73.313 272.383 C 73.240 272.712,73.405 272.936,73.679 272.881 C 73.953 272.827,74.133 273.006,74.078 273.280 C 74.023 273.554,74.202 273.734,74.477 273.679 C 74.751 273.624,74.930 273.804,74.875 274.078 C 74.821 274.352,75.013 274.527,75.304 274.467 C 75.594 274.406,75.733 274.517,75.612 274.713 C 75.322 275.183,84.465 283.788,85.073 283.616 C 85.332 283.543,85.410 283.616,85.248 283.779 C 84.859 284.167,85.726 285.202,86.197 284.911 C 86.397 284.788,86.511 284.909,86.451 285.182 C 86.390 285.455,86.790 285.914,87.338 286.203 C 87.886 286.492,88.178 286.731,87.987 286.734 C 87.796 286.737,87.861 287.007,88.132 287.334 C 88.647 287.954,89.515 287.758,89.116 287.111 C 88.989 286.907,89.076 286.740,89.308 286.740 C 89.843 286.740,89.859 287.411,89.332 287.737 C 89.113 287.872,88.933 288.160,88.933 288.376 C 88.933 288.860,90.207 288.682,90.658 288.136 C 90.854 287.899,90.915 287.980,90.808 288.335 C 90.709 288.664,90.396 288.878,90.112 288.811 C 89.692 288.711,89.691 288.803,90.107 289.305 C 90.389 289.644,90.806 289.806,91.034 289.665 C 91.262 289.524,91.334 289.595,91.193 289.823 C 91.051 290.052,91.238 290.483,91.606 290.782 C 92.056 291.147,92.179 291.163,91.980 290.832 C 91.781 290.501,91.879 290.413,92.277 290.566 C 92.604 290.691,92.788 291.009,92.688 291.271 C 92.504 291.750,95.741 295.120,96.373 295.109 C 96.558 295.105,96.441 294.912,96.112 294.679 C 95.580 294.303,95.580 294.275,96.112 294.421 C 96.441 294.511,96.711 294.914,96.712 295.316 C 96.712 295.718,96.982 296.120,97.310 296.209 C 97.837 296.353,97.837 296.323,97.308 295.949 C 96.924 295.677,96.884 295.523,97.194 295.520 C 97.461 295.516,97.882 295.894,98.131 296.359 C 98.497 297.042,98.481 297.147,98.046 296.905 C 97.750 296.739,98.102 297.166,98.828 297.853 C 99.555 298.541,100.321 299.103,100.532 299.103 C 100.742 299.103,101.116 299.546,101.363 300.087 C 101.610 300.629,101.965 300.977,102.152 300.861 C 102.339 300.746,102.493 300.825,102.493 301.038 C 102.493 301.757,107.293 306.319,107.751 306.036 C 108.007 305.878,108.089 305.937,107.942 306.175 C 107.622 306.693,110.682 309.907,111.366 309.771 C 111.640 309.716,111.820 309.895,111.765 310.169 C 111.637 310.808,113.110 312.294,113.741 312.164 C 114.005 312.109,114.229 312.328,114.239 312.650 C 114.249 312.973,114.676 313.446,115.188 313.701 C 115.700 313.956,116.319 314.365,116.564 314.610 C 117.116 315.162,117.783 315.198,117.448 314.657 C 117.169 314.206,118.344 314.607,120.239 315.612 C 121.688 316.380,122.213 316.407,122.903 315.748 C 124.037 314.663,125.587 313.876,125.825 314.262 C 125.959 314.479,125.849 314.656,125.580 314.656 C 125.311 314.656,125.205 314.770,125.345 314.909 C 125.946 315.510,131.780 310.476,131.329 309.746 C 131.194 309.527,131.270 309.464,131.498 309.605 C 132.005 309.918,132.913 308.919,132.499 308.504 C 132.336 308.342,132.464 308.269,132.783 308.342 C 133.103 308.415,133.376 308.205,133.391 307.876 C 133.407 307.519,133.716 307.330,134.161 307.408 C 134.707 307.503,134.838 307.365,134.655 306.889 C 134.518 306.532,134.563 306.337,134.755 306.455 C 135.225 306.746,136.063 305.695,135.689 305.283 C 135.527 305.104,135.594 305.071,135.839 305.211 C 136.389 305.525,137.703 304.149,137.289 303.692 C 137.124 303.510,137.186 303.474,137.427 303.611 C 137.977 303.925,140.099 301.759,139.687 301.304 C 139.519 301.120,139.586 301.085,139.835 301.227 C 140.373 301.535,148.426 293.738,148.028 293.295 C 147.879 293.129,147.961 293.109,148.210 293.252 C 148.661 293.509,149.483 292.824,149.484 292.190 C 149.485 292.007,149.618 291.738,149.781 291.592 C 149.945 291.446,149.925 291.595,149.738 291.924 C 149.446 292.439,149.492 292.446,150.069 291.979 C 150.437 291.680,150.638 291.271,150.514 291.072 C 150.391 290.872,150.527 290.757,150.818 290.818 C 151.108 290.878,151.297 290.690,151.236 290.399 C 151.176 290.109,151.287 289.970,151.482 290.091 C 151.953 290.382,153.228 288.954,152.842 288.569 C 152.677 288.404,152.757 288.328,153.018 288.401 C 153.612 288.567,164.784 278.016,164.500 277.557 C 164.387 277.374,164.504 277.094,164.761 276.935 C 165.079 276.739,165.122 276.826,164.898 277.207 C 164.717 277.515,164.959 277.425,165.435 277.007 C 166.366 276.191,166.592 275.745,165.841 276.210 C 165.546 276.391,165.489 276.318,165.681 276.007 C 165.847 275.739,166.082 275.620,166.205 275.743 C 166.568 276.106,167.511 275.120,167.232 274.669 C 167.086 274.432,167.168 274.372,167.422 274.530 C 167.986 274.878,171.172 271.646,170.822 271.081 C 170.680 270.852,170.747 270.777,170.971 270.915 C 171.498 271.241,180.846 262.173,180.853 261.330 C 180.855 260.976,181.107 260.603,181.411 260.501 C 181.794 260.373,181.864 260.486,181.636 260.866 C 181.455 261.168,183.314 259.452,185.768 257.051 C 190.030 252.881,190.793 252.047,189.769 252.680 C 189.475 252.862,189.417 252.789,189.609 252.478 C 189.775 252.210,190.010 252.091,190.133 252.213 C 190.550 252.630,191.379 251.589,191.165 250.918 C 190.982 250.344,191.014 250.334,191.388 250.847 C 191.888 251.532,192.787 250.639,192.335 249.908 C 192.206 249.699,192.287 249.643,192.515 249.784 C 193.032 250.104,193.920 249.100,193.516 248.653 C 193.353 248.474,193.417 248.439,193.658 248.576 C 194.222 248.897,196.320 246.723,195.918 246.234 C 195.750 246.029,195.776 245.995,195.975 246.158 C 196.522 246.604,197.390 245.698,197.147 244.936 C 196.986 244.431,197.027 244.397,197.312 244.795 C 197.788 245.458,198.668 244.674,199.462 242.880 C 199.992 241.683,200.707 241.220,200.553 242.173 C 200.427 242.951,201.040 244.089,201.447 243.836 C 201.649 243.712,201.765 243.847,201.705 244.138 C 201.645 244.428,201.833 244.617,202.123 244.556 C 202.414 244.496,202.550 244.610,202.427 244.810 C 202.219 245.147,203.341 246.385,203.651 246.162 C 203.726 246.107,203.795 246.196,203.802 246.361 C 203.830 246.972,207.527 250.404,207.905 250.170 C 208.122 250.036,208.189 250.104,208.055 250.321 C 207.921 250.538,208.557 251.418,209.468 252.277 C 210.380 253.136,210.971 253.569,210.783 253.240 C 210.594 252.911,210.586 252.773,210.763 252.934 C 210.941 253.095,211.294 253.633,211.548 254.131 C 211.803 254.628,212.300 255.012,212.654 254.985 C 213.078 254.952,213.217 255.144,213.061 255.549 C 212.907 255.952,212.986 256.064,213.292 255.874 C 213.549 255.716,213.759 255.794,213.759 256.049 C 213.759 256.303,215.136 257.884,216.820 259.562 C 218.504 261.239,219.733 262.360,219.550 262.052 C 219.326 261.673,219.368 261.584,219.679 261.776 C 219.932 261.933,220.140 262.238,220.140 262.454 C 220.140 263.050,224.514 267.194,225.033 267.090 C 225.283 267.040,225.499 267.268,225.514 267.597 C 225.531 267.960,225.851 268.150,226.330 268.079 C 226.904 267.994,226.975 268.060,226.591 268.320 C 225.962 268.746,227.110 270.166,227.759 269.765 C 227.966 269.637,228.086 269.761,228.026 270.042 C 227.966 270.322,228.185 270.560,228.514 270.570 C 228.843 270.580,229.113 270.798,229.113 271.054 C 229.113 271.646,229.643 272.181,230.243 272.192 C 230.499 272.197,230.653 272.522,230.585 272.913 C 230.500 273.411,230.680 273.588,231.184 273.502 C 231.580 273.435,231.863 273.592,231.814 273.852 C 231.716 274.357,244.614 286.939,245.229 286.939 C 245.431 286.939,245.746 287.103,245.929 287.302 C 246.126 287.518,246.019 287.531,245.663 287.333 C 245.281 287.122,245.340 287.315,245.825 287.868 C 246.663 288.824,247.065 289.010,246.620 288.235 C 246.453 287.946,246.485 287.876,246.696 288.069 C 246.895 288.252,247.062 288.521,247.065 288.667 C 247.079 289.298,247.747 289.921,248.145 289.676 C 248.383 289.529,248.467 289.588,248.331 289.808 C 248.011 290.325,250.199 292.430,250.640 292.030 C 250.824 291.862,250.859 291.929,250.716 292.178 C 250.375 292.776,251.476 293.671,252.088 293.293 C 252.364 293.122,252.462 293.166,252.319 293.397 C 252.061 293.815,254.114 296.019,254.699 295.951 C 254.884 295.930,255.057 296.092,255.085 296.311 C 255.112 296.530,255.157 296.897,255.184 297.126 C 255.212 297.355,255.548 297.490,255.932 297.425 C 256.316 297.361,256.594 297.507,256.549 297.750 C 256.505 297.993,257.026 298.711,257.708 299.345 C 258.389 299.980,258.802 300.246,258.624 299.938 C 258.406 299.559,258.452 299.471,258.768 299.667 C 259.025 299.826,259.149 300.095,259.044 300.266 C 258.938 300.436,259.412 301.097,260.096 301.734 C 260.780 302.370,261.194 302.639,261.017 302.331 C 260.799 301.952,260.845 301.864,261.161 302.060 C 261.418 302.218,261.540 302.491,261.432 302.666 C 261.150 303.122,262.611 304.348,263.008 303.989 C 263.189 303.824,263.209 303.914,263.051 304.188 C 262.867 304.508,263.132 304.827,263.785 305.076 C 264.346 305.289,264.806 305.569,264.806 305.697 C 264.806 305.825,264.598 305.801,264.345 305.645 C 264.051 305.463,263.993 305.536,264.186 305.848 C 264.352 306.116,264.746 306.236,265.061 306.115 C 265.445 305.968,265.597 306.125,265.520 306.587 C 265.446 307.027,265.646 307.260,266.070 307.228 C 266.458 307.199,266.655 307.390,266.541 307.686 C 266.434 307.966,266.566 308.330,266.834 308.496 C 267.144 308.687,267.219 308.631,267.040 308.341 C 266.860 308.051,266.973 307.968,267.352 308.113 C 267.678 308.239,267.855 308.577,267.744 308.866 C 267.633 309.155,267.762 309.527,268.030 309.692 C 268.362 309.897,268.425 309.815,268.227 309.434 C 268.068 309.125,268.192 309.185,268.504 309.565 C 268.817 309.946,269.167 310.162,269.282 310.046 C 269.398 309.931,269.603 310.122,269.737 310.472 C 269.901 310.901,269.820 311.020,269.487 310.837 C 269.215 310.688,269.979 311.488,271.184 312.615 C 273.552 314.829,274.704 315.418,275.174 314.656 C 275.402 314.288,275.543 314.284,275.763 314.641 C 275.922 314.898,276.313 315.009,276.631 314.887 C 276.953 314.764,277.102 314.839,276.967 315.058 C 276.345 316.064,278.685 316.365,280.140 315.466 C 280.930 314.978,281.856 314.686,282.200 314.818 C 282.965 315.112,285.194 313.862,284.862 313.325 C 284.730 313.112,284.823 313.062,285.069 313.213 C 285.758 313.640,288.903 310.235,288.252 309.767 C 287.883 309.501,287.939 309.462,288.449 309.626 C 289.207 309.871,296.311 303.197,296.311 302.241 C 296.311 301.977,296.416 301.866,296.545 301.995 C 296.869 302.319,298.704 300.668,298.704 300.051 C 298.704 299.775,298.911 299.421,299.164 299.264 C 299.477 299.071,299.516 299.159,299.285 299.540 C 299.098 299.848,299.690 299.397,300.602 298.538 C 301.513 297.680,302.149 296.799,302.015 296.582 C 301.881 296.365,301.948 296.297,302.164 296.431 C 302.568 296.681,306.270 293.186,306.234 292.589 C 306.224 292.406,306.348 292.137,306.511 291.991 C 306.674 291.844,306.658 291.994,306.476 292.323 C 306.261 292.711,306.445 292.657,307.001 292.170 C 307.472 291.757,307.759 291.259,307.638 291.063 C 307.517 290.868,307.656 290.757,307.946 290.818 C 308.237 290.878,308.425 290.690,308.365 290.399 C 308.305 290.109,308.417 289.971,308.614 290.092 C 308.975 290.315,309.853 289.575,312.063 287.184 C 313.007 286.164,313.091 285.952,312.462 286.180 C 312.024 286.338,311.783 286.336,311.928 286.175 C 312.072 286.014,312.460 285.843,312.789 285.794 C 313.545 285.683,318.291 281.358,318.035 281.013 C 317.932 280.873,317.965 280.846,318.109 280.954 C 318.529 281.268,319.459 280.310,319.176 279.853 C 319.035 279.625,319.095 279.546,319.309 279.679 C 319.725 279.936,321.085 278.591,320.805 278.199 C 320.713 278.071,320.756 278.054,320.900 278.162 C 321.334 278.486,322.245 277.512,321.966 277.024 C 321.823 276.774,321.853 276.703,322.033 276.866 C 322.453 277.246,323.493 276.397,323.196 275.917 C 323.073 275.717,323.201 275.603,323.482 275.663 C 323.762 275.723,324.000 275.503,324.010 275.174 C 324.020 274.845,324.260 274.576,324.544 274.576 C 325.248 274.576,333.357 266.800,333.232 266.245 C 333.177 266.002,333.212 265.953,333.311 266.136 C 333.409 266.320,334.090 265.888,334.825 265.176 C 335.559 264.464,336.068 263.733,335.956 263.551 C 335.843 263.368,336.030 263.326,336.370 263.457 C 336.711 263.588,337.011 263.496,337.039 263.253 C 337.181 261.994,337.258 261.821,337.639 261.892 C 337.868 261.935,339.116 260.878,340.413 259.544 C 341.710 258.209,342.547 257.242,342.273 257.396 C 341.999 257.549,341.775 257.465,341.775 257.209 C 341.775 256.953,342.044 256.848,342.373 256.974 C 342.993 257.212,353.739 246.913,353.739 246.081 C 353.739 245.851,353.941 245.708,354.187 245.763 C 354.434 245.818,354.727 245.613,354.837 245.308 C 354.971 244.941,354.869 244.859,354.535 245.066 C 354.258 245.237,354.998 244.406,356.178 243.219 C 358.796 240.588,359.365 240.556,356.905 243.179 C 355.369 244.817,355.438 244.778,357.429 242.885 C 359.672 240.752,360.184 240.145,359.260 240.716 C 358.973 240.894,358.908 240.825,359.089 240.534 C 359.247 240.277,359.524 240.157,359.703 240.268 C 360.157 240.549,360.977 239.482,360.615 239.082 C 360.452 238.902,360.513 238.866,360.750 239.001 C 361.163 239.235,364.756 235.926,364.991 235.095 C 365.054 234.875,365.268 234.750,365.467 234.817 C 366.194 235.059,366.437 233.939,365.774 233.401 C 365.186 232.923,365.214 232.910,366.001 233.291 C 366.914 233.734,371.269 229.829,370.977 228.830 C 370.917 228.624,371.031 228.556,371.231 228.680 C 371.702 228.971,372.569 227.936,372.180 227.547 C 372.017 227.385,372.064 227.288,372.283 227.332 C 373.183 227.514,373.639 227.275,373.888 226.490 C 374.032 226.035,374.239 225.751,374.347 225.859 C 374.912 226.424,376.111 224.455,375.600 223.802 C 375.129 223.199,375.146 223.187,375.773 223.678 C 376.229 224.036,376.471 224.071,376.471 223.778 C 376.471 223.531,376.605 223.374,376.770 223.427 C 377.289 223.595,379.651 221.243,379.389 220.820 C 379.251 220.597,379.326 220.531,379.554 220.672 C 380.071 220.991,380.959 219.987,380.555 219.540 C 380.392 219.361,380.460 219.328,380.704 219.468 C 381.255 219.782,382.569 218.406,382.154 217.950 C 381.989 217.768,382.058 217.735,382.308 217.878 C 382.858 218.192,383.763 217.208,383.346 216.749 C 383.184 216.569,383.259 216.542,383.514 216.688 C 384.117 217.032,387.079 213.901,386.913 213.095 C 386.843 212.758,386.965 212.593,387.184 212.728 C 388.313 213.426,389.113 208.660,388.391 205.542 C 388.345 205.345,388.451 204.856,388.625 204.456 C 388.843 203.955,388.714 203.518,388.212 203.060 C 387.524 202.432,387.513 202.435,388.014 203.100 C 388.479 203.716,388.460 203.773,387.870 203.547 C 387.470 203.393,387.287 203.040,387.424 202.684 C 387.734 201.875,386.541 200.096,385.925 200.450 C 385.660 200.602,385.577 200.579,385.739 200.400 C 386.144 199.953,385.256 198.949,384.739 199.268 C 384.510 199.410,384.439 199.338,384.580 199.110 C 384.826 198.712,383.780 197.543,383.289 197.667 C 383.158 197.700,383.088 197.587,383.134 197.416 C 383.269 196.914,370.070 184.434,369.559 184.580 C 369.302 184.653,369.226 184.579,369.388 184.417 C 369.758 184.047,368.922 182.986,368.477 183.261 C 368.298 183.372,368.021 183.253,367.862 182.996 C 367.666 182.678,367.753 182.634,368.134 182.858 C 368.442 183.040,368.352 182.798,367.934 182.322 C 367.150 181.428,366.667 181.156,367.096 181.850 C 367.235 182.074,367.078 182.144,366.733 182.011 C 366.400 181.883,366.142 181.661,366.162 181.518 C 366.263 180.753,366.058 180.239,365.732 180.441 C 365.528 180.567,365.242 180.295,365.097 179.836 C 364.951 179.378,364.735 179.100,364.617 179.219 C 364.498 179.337,364.044 178.981,363.608 178.427 C 363.172 177.873,362.570 177.513,362.270 177.628 C 361.970 177.744,361.767 177.620,361.819 177.354 C 361.872 177.087,361.602 176.894,361.221 176.924 C 360.836 176.954,360.641 176.795,360.781 176.567 C 360.947 176.300,360.631 176.247,359.880 176.416 C 358.141 176.807,354.984 176.911,355.196 176.570 C 355.452 176.158,354.063 176.205,353.389 176.632 C 353.082 176.826,352.972 177.194,353.139 177.466 C 353.351 177.808,353.213 177.880,352.672 177.708 C 351.543 177.350,341.376 186.393,341.376 187.755 C 341.376 187.993,341.169 188.316,340.915 188.473 C 340.611 188.661,340.564 188.581,340.778 188.235 C 340.991 187.890,340.945 187.810,340.640 187.998 C 340.387 188.154,340.179 188.552,340.179 188.881 C 340.179 189.210,340.029 189.386,339.845 189.272 C 339.369 188.978,336.511 192.005,336.881 192.412 C 337.050 192.598,336.984 192.633,336.735 192.491 C 336.185 192.177,335.280 193.161,335.696 193.620 C 335.859 193.800,335.797 193.835,335.558 193.700 C 335.019 193.393,332.071 196.345,332.494 196.768 C 332.663 196.937,332.532 197.016,332.203 196.943 C 331.872 196.869,331.654 197.045,331.715 197.338 C 331.775 197.628,331.656 197.762,331.449 197.634 C 330.928 197.312,328.548 199.769,328.872 200.295 C 329.018 200.530,328.950 200.607,328.721 200.465 C 328.493 200.324,328.098 200.458,327.845 200.763 C 327.493 201.187,327.506 201.374,327.900 201.553 C 328.183 201.682,328.032 201.694,327.565 201.580 C 326.758 201.383,325.897 202.327,326.543 202.700 C 326.695 202.788,326.617 202.814,326.370 202.757 C 325.789 202.625,325.057 203.356,325.190 203.937 C 325.247 204.184,325.215 204.245,325.120 204.071 C 325.025 203.897,324.698 203.963,324.392 204.216 C 324.087 204.469,323.938 204.840,324.062 205.040 C 324.186 205.240,324.139 205.378,323.958 205.347 C 323.110 205.199,322.665 205.450,322.423 206.212 C 322.279 206.667,322.068 206.947,321.956 206.834 C 321.694 206.573,319.840 208.556,319.840 209.098 C 319.840 209.322,319.736 209.400,319.608 209.272 C 319.236 208.900,317.965 210.317,318.163 210.884 C 318.262 211.167,318.160 211.346,317.936 211.283 C 317.343 211.113,313.006 214.943,313.284 215.392 C 313.413 215.601,313.281 215.723,312.991 215.663 C 312.700 215.603,312.507 215.778,312.562 216.052 C 312.617 216.326,312.438 216.505,312.164 216.451 C 311.889 216.396,311.710 216.575,311.765 216.849 C 311.820 217.124,311.720 217.303,311.544 217.248 C 310.991 217.076,300.320 227.426,300.579 227.882 C 300.715 228.120,300.679 228.182,300.499 228.019 C 300.053 227.615,299.049 228.503,299.368 229.020 C 299.509 229.248,299.445 229.324,299.225 229.188 C 298.842 228.951,296.697 230.875,296.571 231.568 C 296.538 231.753,296.369 231.857,296.197 231.800 C 295.688 231.630,293.910 233.762,294.187 234.209 C 294.330 234.442,294.246 234.500,293.992 234.342 C 293.516 234.049,285.145 242.138,285.145 242.890 C 285.145 243.125,284.985 243.219,284.791 243.099 C 284.596 242.979,284.230 243.130,283.977 243.435 C 283.723 243.740,283.658 244.068,283.832 244.163 C 284.005 244.258,283.936 244.286,283.678 244.226 C 283.066 244.082,282.273 245.042,282.656 245.465 C 282.818 245.644,282.725 245.661,282.449 245.502 C 282.133 245.320,281.811 245.553,281.577 246.136 C 281.374 246.644,281.196 246.893,281.182 246.690 C 281.168 246.487,280.713 246.738,280.172 247.247 C 279.630 247.755,279.299 248.353,279.436 248.574 C 279.577 248.803,279.486 248.854,279.224 248.692 C 278.971 248.536,278.764 248.598,278.764 248.830 C 278.764 249.062,278.574 249.252,278.341 249.252 C 278.109 249.252,278.025 249.081,278.155 248.871 C 278.479 248.345,272.415 242.406,271.887 242.732 C 271.653 242.877,271.577 242.808,271.719 242.579 C 272.038 242.063,271.034 241.174,270.587 241.579 C 270.408 241.741,270.372 241.680,270.507 241.442 C 270.821 240.891,267.464 237.564,267.011 237.977 C 266.824 238.147,266.784 238.088,266.921 237.848 C 267.235 237.297,265.069 235.175,264.614 235.588 C 264.430 235.755,264.388 235.700,264.522 235.465 C 264.775 235.019,260.075 230.633,259.532 230.808 C 259.362 230.862,259.267 230.683,259.322 230.409 C 259.377 230.135,259.153 229.970,258.824 230.043 C 258.495 230.116,258.365 230.037,258.535 229.866 C 258.899 229.502,254.490 224.925,253.775 224.925 C 253.507 224.925,253.159 224.718,253.003 224.465 C 252.815 224.160,252.895 224.114,253.240 224.327 C 253.596 224.547,253.666 224.494,253.461 224.162 C 253.295 223.894,252.918 223.767,252.622 223.881 C 252.286 224.010,252.163 223.882,252.295 223.540 C 252.410 223.238,252.132 222.793,251.676 222.549 C 251.187 222.287,250.847 222.263,250.847 222.489 C 250.847 222.700,251.162 222.955,251.545 223.055 C 252.189 223.223,252.190 223.241,251.559 223.284 C 251.183 223.309,250.683 222.971,250.449 222.532 C 250.125 221.927,250.146 221.733,250.534 221.729 C 250.905 221.724,250.886 221.621,250.468 221.356 C 250.149 221.155,249.715 221.097,249.503 221.228 C 249.278 221.367,249.226 221.181,249.379 220.782 C 249.535 220.376,249.482 220.197,249.248 220.342 C 249.031 220.476,248.851 220.351,248.847 220.063 C 248.843 219.679,248.728 219.699,248.411 220.140 C 248.048 220.645,248.016 220.629,248.205 220.040 C 248.423 219.361,245.954 216.392,245.527 216.820 C 245.422 216.924,245.219 216.637,245.074 216.182 C 244.833 215.420,244.387 215.169,243.540 215.317 C 243.359 215.348,243.304 215.222,243.419 215.038 C 243.709 214.567,241.776 212.564,241.173 212.710 C 240.901 212.776,240.824 212.751,241.001 212.655 C 241.179 212.559,241.021 212.144,240.649 211.733 C 240.277 211.322,239.813 211.085,239.618 211.206 C 239.422 211.326,239.312 211.188,239.372 210.897 C 239.440 210.571,239.176 210.413,238.684 210.485 C 238.128 210.566,238.040 210.497,238.395 210.256 C 238.935 209.889,237.256 207.654,236.605 207.872 C 236.432 207.929,236.239 207.797,236.175 207.577 C 235.933 206.747,233.152 204.231,232.737 204.467 C 232.498 204.603,232.436 204.567,232.599 204.388 C 232.979 203.968,232.130 202.928,231.650 203.224 C 231.450 203.348,231.336 203.211,231.396 202.921 C 231.456 202.630,231.281 202.438,231.007 202.493 C 230.733 202.547,230.553 202.368,230.608 202.094 C 230.663 201.820,230.470 201.645,230.180 201.705 C 229.889 201.765,229.749 201.658,229.867 201.466 C 230.163 200.986,228.047 199.189,227.364 199.340 C 227.019 199.416,226.896 199.241,227.036 198.876 C 227.164 198.540,226.820 197.889,226.228 197.351 C 225.660 196.834,225.321 196.680,225.474 197.009 C 225.627 197.338,225.522 197.274,225.239 196.867 C 224.072 195.185,215.320 186.646,214.858 186.739 C 214.582 186.794,214.396 186.632,214.444 186.379 C 214.492 186.126,214.233 185.677,213.869 185.382 C 213.309 184.928,213.259 184.932,213.544 185.406 C 213.775 185.789,213.734 185.874,213.415 185.677 C 213.158 185.518,213.039 185.242,213.150 185.062 C 213.260 184.883,213.101 184.529,212.796 184.276 C 212.491 184.022,212.163 183.957,212.068 184.131 C 211.973 184.305,211.945 184.235,212.006 183.977 C 212.133 183.435,211.221 182.564,210.831 182.855 C 210.686 182.963,210.656 182.933,210.764 182.788 C 211.078 182.368,210.121 181.439,209.664 181.721 C 209.434 181.863,209.367 181.787,209.513 181.551 C 209.804 181.078,205.895 177.468,205.092 177.468 C 204.814 177.468,204.586 177.269,204.586 177.026 C 204.586 176.783,204.308 176.692,203.967 176.822 C 203.612 176.958,203.452 176.891,203.592 176.665 C 203.729 176.444,203.378 176.271,202.792 176.271 C 202.217 176.271,201.833 176.409,201.937 176.578 C 202.162 176.941,198.688 176.887,198.323 176.522 C 197.856 176.054,196.311 176.268,195.813 176.869 C 195.540 177.198,195.079 177.468,194.790 177.468 C 194.181 177.468,185.436 185.790,185.560 186.252 C 185.606 186.421,185.464 186.594,185.244 186.634 C 184.490 186.774,183.858 187.529,184.116 187.981 C 184.259 188.231,184.228 188.302,184.049 188.139 C 183.602 187.735,182.598 188.623,182.917 189.140 C 183.066 189.380,182.981 189.436,182.715 189.271 C 182.134 188.912,180.184 190.969,180.530 191.576 C 180.671 191.822,180.639 191.891,180.460 191.728 C 180.013 191.324,179.009 192.212,179.328 192.729 C 179.469 192.957,179.399 193.029,179.171 192.888 C 178.699 192.597,170.032 200.890,170.199 201.473 C 170.260 201.683,170.155 201.759,169.966 201.642 C 169.778 201.526,168.921 202.176,168.062 203.087 C 167.203 203.999,166.753 204.591,167.061 204.404 C 167.442 204.173,167.530 204.212,167.336 204.525 C 167.180 204.778,166.827 204.985,166.552 204.985 C 165.730 204.985,163.785 207.255,164.130 207.812 C 164.343 208.158,164.243 208.236,163.803 208.068 C 163.446 207.931,162.938 208.109,162.641 208.475 C 162.198 209.022,162.203 209.072,162.674 208.789 C 163.046 208.564,163.142 208.600,162.960 208.894 C 162.810 209.138,162.409 209.231,162.071 209.101 C 161.631 208.932,161.493 209.077,161.585 209.608 C 161.663 210.052,161.475 210.362,161.117 210.378 C 160.788 210.393,160.568 210.635,160.628 210.915 C 160.688 211.196,160.582 211.329,160.392 211.212 C 159.973 210.953,157.428 213.499,157.720 213.885 C 157.833 214.035,157.808 214.069,157.664 213.962 C 157.230 213.638,156.320 214.611,156.599 215.100 C 156.741 215.349,156.711 215.420,156.531 215.258 C 156.085 214.853,155.081 215.741,155.400 216.258 C 155.542 216.488,155.466 216.556,155.230 216.410 C 154.544 215.986,152.165 218.575,152.813 219.040 C 153.201 219.318,153.153 219.357,152.633 219.189 C 151.844 218.935,150.325 220.224,150.170 221.278 C 150.117 221.639,149.821 221.942,149.513 221.952 C 149.205 221.962,148.998 222.187,149.053 222.451 C 149.108 222.715,149.018 222.891,148.853 222.843 C 148.311 222.682,146.397 224.184,146.148 224.967 C 146.014 225.389,145.737 225.631,145.531 225.504 C 145.326 225.377,144.991 225.688,144.788 226.196 C 144.584 226.703,144.406 226.962,144.392 226.771 C 144.378 226.579,144.100 226.645,143.773 226.916 C 143.446 227.187,143.270 227.555,143.381 227.734 C 143.492 227.914,143.372 228.190,143.115 228.349 C 142.798 228.545,142.754 228.459,142.978 228.078 C 143.159 227.770,142.918 227.859,142.441 228.277 C 141.485 229.116,141.299 229.518,142.074 229.072 C 142.363 228.906,142.433 228.937,142.240 229.148 C 142.057 229.348,141.788 229.514,141.642 229.518 C 141.011 229.532,140.388 230.200,140.633 230.598 C 140.781 230.836,140.722 230.920,140.503 230.785 C 139.970 230.455,127.556 242.450,127.883 242.979 C 128.024 243.207,127.952 243.278,127.724 243.137 C 127.207 242.817,126.319 243.822,126.723 244.268 C 126.886 244.448,126.815 244.478,126.566 244.336 C 126.036 244.033,125.097 245.004,125.515 245.422 C 125.671 245.578,125.490 245.587,125.112 245.442 C 124.485 245.201,124.227 245.594,124.379 246.560 C 124.405 246.725,124.289 246.815,124.120 246.760 C 123.629 246.600,121.635 248.318,121.635 248.900 C 121.635 249.191,121.354 249.028,121.010 248.537 C 120.666 248.046,120.189 247.764,119.951 247.911 C 119.702 248.065,119.632 247.995,119.785 247.746 C 120.031 247.349,119.407 246.681,118.777 246.666 C 118.631 246.663,118.362 246.497,118.179 246.297 C 117.982 246.082,118.090 246.064,118.445 246.253 C 118.774 246.428,117.980 245.479,116.681 244.142 C 115.382 242.806,114.143 241.822,113.928 241.955 C 113.712 242.088,113.641 242.027,113.770 241.818 C 114.124 241.245,107.817 235.161,107.238 235.518 C 106.922 235.714,106.860 235.648,107.058 235.327 C 107.523 234.576,103.710 231.052,103.202 231.763 C 102.904 232.180,102.865 232.151,103.029 231.634 C 103.147 231.267,102.950 230.728,102.592 230.438 C 102.045 229.995,101.995 230.000,102.278 230.470 C 102.509 230.853,102.468 230.939,102.149 230.742 C 101.892 230.583,101.773 230.307,101.883 230.127 C 102.158 229.683,101.097 228.846,100.728 229.216 C 100.565 229.378,100.468 229.332,100.512 229.113 C 100.710 228.134,100.461 227.646,99.880 227.869 C 99.539 228.000,99.353 227.957,99.467 227.773 C 99.759 227.301,97.523 225.249,97.117 225.618 C 96.932 225.785,96.898 225.718,97.040 225.469 C 97.284 225.042,96.185 223.776,95.818 224.061 C 95.723 224.134,95.527 224.061,95.381 223.898 C 95.234 223.734,95.384 223.751,95.713 223.935 C 96.042 224.119,94.267 222.268,91.770 219.822 C 89.272 217.376,87.046 215.487,86.823 215.625 C 86.600 215.763,86.526 215.700,86.659 215.484 C 86.792 215.269,85.707 213.940,84.247 212.531 C 82.787 211.123,81.728 210.192,81.893 210.464 C 82.096 210.796,82.000 210.883,81.601 210.730 C 81.275 210.605,81.098 210.266,81.209 209.977 C 81.320 209.689,81.191 209.317,80.923 209.151 C 80.597 208.950,80.538 209.016,80.744 209.350 C 80.991 209.750,80.864 209.751,80.108 209.358 C 78.916 208.737,78.551 208.371,79.441 208.690 C 79.922 208.862,80.055 208.765,79.898 208.357 C 79.777 208.040,79.516 207.881,79.320 208.002 C 79.124 208.123,78.963 208.022,78.963 207.777 C 78.963 207.039,75.378 203.739,74.897 204.036 C 74.645 204.192,74.564 204.131,74.710 203.895 C 75.029 203.379,74.025 202.490,73.578 202.895 C 73.399 203.057,73.372 202.982,73.518 202.726 C 73.870 202.110,67.880 196.120,67.264 196.472 C 67.008 196.619,66.933 196.591,67.095 196.412 C 67.555 195.905,66.621 195.037,65.873 195.276 C 65.355 195.441,65.327 195.402,65.745 195.102 C 66.313 194.697,65.740 194.038,64.806 194.024 C 64.586 194.021,64.404 193.838,64.401 193.619 C 64.390 192.915,63.766 192.203,63.372 192.446 C 63.163 192.575,63.041 192.452,63.101 192.171 C 63.161 191.891,62.941 191.649,62.612 191.634 C 62.265 191.619,62.065 191.309,62.136 190.896 C 62.215 190.439,62.046 190.228,61.664 190.306 C 61.337 190.374,61.102 190.303,61.143 190.149 C 61.281 189.625,58.098 186.672,57.662 186.920 C 57.423 187.056,57.361 187.020,57.524 186.840 C 57.983 186.333,57.050 185.466,56.302 185.704 C 55.852 185.848,55.790 185.804,56.112 185.570 C 56.691 185.149,51.550 179.947,48.359 177.726 C 46.533 176.454,44.278 175.722,44.804 176.570 C 45.016 176.911,41.859 176.807,40.120 176.416 C 39.369 176.247,39.053 176.300,39.219 176.567 M37.451 178.387 C 36.923 178.892,36.401 179.235,36.291 179.150 C 36.085 178.989,37.805 177.468,38.193 177.468 C 38.313 177.468,37.979 177.881,37.451 178.387 M129.748 311.535 C 129.383 311.938,128.979 312.153,128.849 312.012 C 128.720 311.871,128.840 311.675,129.115 311.576 C 129.391 311.478,129.533 311.263,129.432 311.099 C 129.330 310.935,129.509 310.801,129.830 310.801 C 130.311 310.801,130.297 310.929,129.748 311.535 " stroke="none" fill="#3c9cfc" fill-rule="evenodd"></path><path id="path1" d="M189.648 82.924 C 189.522 83.128,189.601 83.408,189.824 83.545 C 190.047 83.683,190.229 83.614,190.229 83.392 C 190.229 83.128,193.736 83.016,200.361 83.069 C 205.933 83.114,210.409 83.016,210.307 82.851 C 210.035 82.411,189.921 82.481,189.648 82.924 M177.924 84.104 C 177.605 84.305,178.425 84.370,179.918 84.260 C 181.312 84.158,182.527 84.001,182.619 83.912 C 182.951 83.586,178.450 83.770,177.924 84.104 M218.644 84.034 C 219.247 84.126,220.234 84.126,220.837 84.034 C 221.441 83.943,220.947 83.868,219.741 83.868 C 218.534 83.868,218.041 83.943,218.644 84.034 M171.884 85.289 C 171.884 85.478,172.333 85.546,172.881 85.442 C 173.430 85.337,173.878 85.182,173.878 85.098 C 173.878 85.014,173.430 84.945,172.881 84.945 C 172.333 84.945,171.884 85.100,171.884 85.289 M226.281 85.279 C 226.519 85.664,227.969 85.623,228.373 85.219 C 228.524 85.068,228.069 84.945,227.361 84.945 C 226.653 84.945,226.167 85.095,226.281 85.279 M123.770 101.692 C 123.299 101.882,122.802 102.218,122.666 102.437 C 122.530 102.657,122.961 102.567,123.622 102.237 C 124.284 101.907,124.826 101.560,124.826 101.466 C 124.826 101.262,124.845 101.258,123.770 101.692 M198.910 132.293 C 199.627 132.382,200.704 132.380,201.303 132.289 C 201.903 132.198,201.316 132.125,200.000 132.128 C 198.684 132.130,198.194 132.204,198.910 132.293 M170.205 136.052 C 169.848 136.279,169.957 136.380,170.565 136.385 C 171.045 136.388,171.531 136.241,171.644 136.058 C 171.908 135.631,170.876 135.627,170.205 136.052 M162.712 138.385 C 162.712 138.604,162.981 138.784,163.310 138.784 C 163.639 138.784,163.908 138.604,163.908 138.385 C 163.908 138.166,163.639 137.986,163.310 137.986 C 162.981 137.986,162.712 138.166,162.712 138.385 M77.634 140.645 C 77.488 140.791,77.368 141.628,77.368 142.506 C 77.368 144.528,77.656 144.282,77.877 142.070 C 78.056 140.276,78.048 140.230,77.634 140.645 M40.782 176.509 C 41.134 176.860,45.021 176.920,44.804 176.570 C 44.702 176.406,43.702 176.271,42.582 176.271 C 41.462 176.271,40.652 176.378,40.782 176.509 M198.068 176.570 C 197.966 176.735,198.836 176.869,200.000 176.869 C 201.164 176.869,202.034 176.735,201.932 176.570 C 201.831 176.406,200.961 176.271,200.000 176.271 C 199.039 176.271,198.169 176.406,198.068 176.570 M355.198 176.570 C 355.098 176.735,356.154 176.874,357.546 176.880 C 358.938 176.885,359.862 176.753,359.599 176.587 C 358.981 176.194,355.437 176.180,355.198 176.570 M37.033 178.231 C 36.515 178.651,36.181 179.064,36.291 179.150 C 36.401 179.235,36.923 178.892,37.451 178.387 C 38.614 177.274,38.340 177.172,37.033 178.231 M388.322 204.885 C 388.234 205.050,388.295 205.633,388.458 206.181 C 388.735 207.113,388.757 207.094,388.794 205.882 C 388.832 204.632,388.656 204.261,388.322 204.885 M11.167 207.378 C 11.167 208.548,11.240 209.430,11.330 209.339 C 11.633 209.029,11.734 205.819,11.449 205.534 C 11.294 205.378,11.167 206.208,11.167 207.378 M388.527 208.973 C 388.527 209.741,388.609 210.055,388.710 209.671 C 388.810 209.287,388.810 208.659,388.710 208.275 C 388.609 207.891,388.527 208.205,388.527 208.973 M250.449 222.532 C 250.683 222.971,251.183 223.309,251.559 223.284 C 252.190 223.241,252.189 223.223,251.545 223.055 C 251.162 222.955,250.847 222.617,250.847 222.304 C 250.847 221.991,250.662 221.735,250.435 221.735 C 250.155 221.735,250.159 221.992,250.449 222.532 M356.210 243.188 C 355.046 244.358,354.418 245.139,354.814 244.923 C 355.685 244.447,358.743 241.338,358.499 241.176 C 358.403 241.113,357.373 242.018,356.210 243.188 M199.525 242.704 C 199.145 243.524,199.151 243.644,199.555 243.309 C 199.885 243.035,200.221 243.025,200.528 243.280 C 200.855 243.551,200.886 243.534,200.629 243.222 C 200.427 242.976,200.357 242.527,200.473 242.225 C 200.854 241.231,200.011 241.658,199.525 242.704 M180.447 261.515 L 179.745 262.612 180.800 261.645 C 181.940 260.600,182.044 260.419,181.501 260.419 C 181.307 260.419,180.833 260.912,180.447 261.515 M96.357 295.015 C 96.743 295.399,97.410 296.072,97.840 296.510 C 98.270 296.949,98.473 297.039,98.292 296.710 C 97.802 295.823,96.359 294.332,95.983 294.324 C 95.803 294.320,95.971 294.631,96.357 295.015 M129.432 311.099 C 129.533 311.263,129.391 311.478,129.115 311.576 C 128.840 311.675,128.720 311.871,128.849 312.012 C 128.979 312.153,129.383 311.938,129.748 311.535 C 130.297 310.929,130.311 310.801,129.830 310.801 C 129.509 310.801,129.330 310.935,129.432 311.099 M124.645 314.492 C 124.101 314.890,124.044 315.053,124.450 315.049 C 125.254 315.040,126.179 314.401,125.761 314.143 C 125.571 314.025,125.069 314.182,124.645 314.492 " stroke="none" fill="#409cfc" fill-rule="evenodd"></path></g></svg>