<?xml version="1.0" encoding="utf-8"?>
<!-- Generator: Adobe Illustrator 25.0.1, SVG Export Plug-In . SVG Version: 6.00 Build 0)  -->
<svg version="1.1" id="圖層_1" xmlns="http://www.w3.org/2000/svg" xmlns:xlink="http://www.w3.org/1999/xlink" x="0px" y="0px"
	 viewBox="0 0 1080 1080" style="enable-background:new 0 0 1080 1080;" xml:space="preserve">
<style type="text/css">
	.st0{display:none;fill:#FDF6FF;}
	.st1{fill:#D5D5F4;}
	.st2{fill:#9B8CD1;}
	.st3{display:none;}
	.st4{font-family:'LiGothicMed';}
	.st5{font-size:88.5688px;}
	.st6{font-family:'TaipeiSansTCBeta-Bold';}
	.st7{font-size:64.2689px;}
</style>
<g>
	<rect x="0" y="0" class="st0" width="1080" height="1080"/>
	<g>
		<path class="st1" d="M332.43,902.25c122.05,75.89,272.51,54.56,336.07-47.65c63.56-102.21,16.14-246.59-105.91-322.48"/>
		<path class="st1" d="M680.1,479.29c-122.05-75.89-272.51-54.56-336.07,47.65c-63.56,102.21-16.14,246.59,105.91,322.48"/>
		
			<ellipse transform="matrix(0.7071 -0.7071 0.7071 0.7071 -30.395 469.2065)" class="st2" cx="551.18" cy="271.29" rx="95.51" ry="95.51"/>
		<polygon class="st2" points="551.18,411.36 303.46,809.74 798.91,809.74 		"/>
	</g>
</g>
<text transform="matrix(0.9605 0 0 1 734.0301 347.3432)" class="st3 st4 st5">#FDF6FF</text>
<text transform="matrix(1 0 0 1 403.5771 757.0855)" class="st3 st6 st7">#9B8CD1</text>
<text transform="matrix(1 0 0 1 147.4566 569.5517)" class="st3 st6 st7">#D5D5F4</text>
</svg>
