<?xml version="1.0" standalone="no"?>
<!DOCTYPE svg PUBLIC "-//W3C//DTD SVG 20010904//EN"
 "http://www.w3.org/TR/2001/REC-SVG-20010904/DTD/svg10.dtd">
<svg version="1.0" xmlns="http://www.w3.org/2000/svg"
 width="512.000000pt" height="512.000000pt" viewBox="0 0 512.000000 512.000000"
 preserveAspectRatio="xMidYMid meet">
<metadata>
Created by potrace 1.16, written by Peter Selinger 2001-2019
</metadata>
<g transform="translate(0.000000,512.000000) scale(0.100000,-0.100000)"
fill="#f0f0f0" stroke="none">
<path d="M3398 4723 l-296 -296 -99 31 c-223 72 -423 102 -678 102 -248 0
-394 -19 -616 -81 -856 -238 -1499 -980 -1613 -1859 -21 -157 -21 -442 -1
-595 124 -947 839 -1713 1775 -1904 170 -35 291 -44 514 -38 289 7 500 47 743
142 594 233 1055 691 1283 1277 106 272 150 509 150 818 0 259 -30 459 -102
683 l-31 99 299 299 299 299 -63 62 -62 63 -517 -516 c-378 -377 -534 -526
-578 -552 -127 -75 -250 -109 -400 -108 -349 1 -651 239 -736 580 -31 121 -24
302 15 416 57 166 65 176 625 737 l515 518 -59 60 c-33 33 -62 60 -65 60 -3 0
-138 -133 -302 -297z m-918 -337 c109 -6 220 -24 352 -57 150 -38 151 -19 -9
-182 -181 -185 -250 -287 -301 -447 -60 -188 -57 -417 8 -604 93 -271 324
-493 598 -576 l72 -22 0 -111 0 -110 -85 -114 c-47 -62 -88 -113 -90 -113 -3
0 -100 79 -215 175 l-210 175 -318 0 -317 0 -223 223 -222 222 0 195 1 195
135 100 c207 153 184 109 184 346 l0 203 -170 171 -170 171 102 38 c124 46
251 80 378 102 94 16 308 32 365 27 17 -1 77 -5 135 -7z m-973 -418 l173 -173
0 -115 -1 -115 -135 -100 c-75 -55 -147 -110 -160 -122 l-24 -22 0 -283 0
-283 258 -257 257 -258 323 0 322 0 240 -200 c219 -182 244 -200 278 -200 20
0 42 4 49 8 7 4 71 86 143 182 l130 173 0 139 0 138 84 0 c171 0 342 56 501
163 33 23 124 104 202 180 141 139 143 139 153 113 13 -35 50 -181 50 -198 0
-9 -20 -18 -54 -25 -164 -35 -301 -158 -355 -320 -16 -48 -21 -88 -21 -170 l0
-108 -160 -240 -160 -240 0 -257 0 -258 -222 0 -222 0 -178 -178 c-177 -176
-178 -178 -178 -222 0 -43 3 -46 141 -186 l141 -142 -54 -20 c-232 -85 -448
-123 -708 -123 -336 0 -625 69 -925 218 -187 93 -380 230 -505 357 l-54 56 43
0 c43 0 48 3 166 120 l121 120 317 0 c304 0 318 1 337 20 19 19 20 33 20 218
0 108 -4 203 -9 210 -4 7 -201 154 -437 325 l-429 313 -6 204 c-3 113 -6 206
-7 207 -1 1 -134 84 -294 184 -161 100 -295 184 -297 186 -7 5 50 144 107 258
171 344 431 629 766 839 49 31 92 56 95 56 3 0 83 -78 178 -172z m-944 -1311
l237 -149 0 -191 c0 -106 4 -198 9 -205 4 -7 201 -154 437 -325 l429 -313 3
-97 3 -97 -302 0 -302 0 -122 -120 -121 -120 -71 0 c-70 0 -72 0 -101 38 -98
125 -220 348 -287 527 -130 347 -161 745 -88 1123 9 49 20 82 27 80 6 -2 118
-70 249 -151z m3821 -129 c12 -47 6 -379 -10 -489 -82 -590 -419 -1122 -919
-1452 -49 -32 -115 -72 -146 -87 l-56 -29 -124 125 -124 124 120 120 120 120
237 0 c225 0 239 1 258 20 19 19 20 33 20 303 l0 282 160 240 160 240 0 85 c0
109 15 202 41 252 30 59 102 124 162 147 70 27 93 26 101 -1z"/>
<path d="M2218 1782 c-131 -131 -138 -140 -138 -177 0 -51 76 -281 101 -306
17 -17 36 -19 177 -19 l159 0 173 130 c96 72 178 136 182 143 4 7 8 30 8 51 0
37 -7 47 -97 137 l-98 96 -125 42 c-192 63 -178 67 -342 -97z m297 -72 c47
-15 83 -34 108 -58 20 -20 37 -39 37 -43 0 -4 -49 -43 -109 -88 l-108 -81 -70
0 -69 0 -22 67 -22 68 83 83 c45 45 86 81 92 79 5 -2 42 -14 80 -27z"/>
<path d="M4100 4860 c-19 -19 -20 -33 -20 -256 0 -134 4 -243 10 -254 12 -23
428 -190 473 -190 18 0 40 6 49 13 9 6 55 70 102 142 l86 130 0 157 c0 141 -2
160 -19 177 -10 10 -74 37 -142 60 l-124 41 -198 0 c-184 0 -198 -1 -217 -20z
m442 -172 l98 -32 0 -71 c0 -69 -1 -72 -55 -153 -31 -45 -59 -82 -63 -82 -4 0
-68 24 -142 54 l-135 54 -3 131 -3 131 103 0 c88 0 116 -4 200 -32z"/>
<path d="M3575 4420 l-200 -200 63 -62 62 -63 202 202 203 203 -60 60 c-33 33
-62 60 -65 60 -3 0 -95 -90 -205 -200z"/>
<path d="M4055 4100 l-120 -120 63 -62 62 -63 122 122 123 123 -60 60 c-33 33
-62 60 -65 60 -3 0 -59 -54 -125 -120z"/>
<path d="M4535 3940 l-200 -200 63 -62 62 -63 202 202 203 203 -60 60 c-33 33
-62 60 -65 60 -3 0 -95 -90 -205 -200z"/>
<path d="M3068 3988 c-9 -7 -73 -107 -142 -223 -99 -164 -126 -218 -126 -246
0 -35 72 -407 86 -442 4 -11 81 -56 185 -108 l179 -89 232 0 c128 0 238 4 245
8 6 4 88 103 182 221 151 188 171 218 171 250 0 31 -83 255 -157 424 -16 36
-29 45 -195 128 l-178 89 -233 0 c-171 0 -237 -3 -249 -12z m567 -221 l140
-72 62 -155 c34 -85 60 -160 58 -167 -2 -7 -62 -84 -132 -172 l-128 -161 -163
0 -162 0 -138 69 -137 69 -32 162 -32 163 101 168 101 169 161 0 161 -1 140
-72z"/>
<path d="M3303 3666 c-87 -90 -107 -137 -101 -234 5 -89 41 -153 112 -197 40
-24 62 -30 123 -33 63 -4 81 -1 126 21 28 15 81 56 117 92 l65 65 -63 62 -62
63 -68 -68 c-58 -57 -73 -67 -103 -67 -46 0 -79 33 -79 80 0 29 11 45 67 102
l67 68 -59 60 c-33 33 -62 60 -66 60 -4 0 -38 -33 -76 -74z"/>
</g>
</svg>
