<?xml version="1.0" standalone="no"?>
<!DOCTYPE svg PUBLIC "-//W3C//DTD SVG 20010904//EN"
 "http://www.w3.org/TR/2001/REC-SVG-20010904/DTD/svg10.dtd">
<svg version="1.0" xmlns="http://www.w3.org/2000/svg"
 width="512.000000pt" height="512.000000pt" viewBox="0 0 512.000000 512.000000"
 preserveAspectRatio="xMidYMid meet">
<metadata>
Created by potrace 1.16, written by Peter Selinger 2001-2019
</metadata>
<g transform="translate(0.000000,512.000000) scale(0.100000,-0.100000)"
fill="#f0f0f0" stroke="none">
<path d="M2433 4550 c-550 -45 -1052 -394 -1289 -894 l-44 -93 -142 -6 c-173
-7 -275 -30 -406 -92 -276 -131 -476 -383 -536 -677 -11 -52 -16 -130 -16
-238 l0 -160 320 0 320 0 77 -81 c94 -98 199 -179 332 -254 56 -31 101 -59
101 -60 0 -2 -139 -228 -309 -502 l-309 -498 -141 -3 -141 -3 0 -84 0 -85 335
0 335 0 0 85 0 84 -89 3 -89 3 280 450 c154 248 283 457 288 465 7 13 22 10
102 -17 292 -101 580 -154 966 -179 l102 -6 0 -484 0 -484 -120 0 -120 0 0
-90 0 -90 335 0 335 0 0 90 0 90 -125 0 -125 0 0 484 0 484 113 7 c351 21 642
73 925 167 71 23 127 37 132 32 10 -11 570 -915 570 -920 0 -2 -40 -4 -90 -4
l-90 0 0 -85 0 -85 340 0 340 0 0 85 0 85 -142 0 -143 0 -312 503 c-218 350
-308 504 -300 510 7 4 53 30 102 58 126 71 226 148 322 246 l81 83 306 0 306
0 0 160 c0 239 -35 376 -139 545 -99 160 -232 281 -406 366 -130 63 -236 89
-400 96 l-130 6 -58 116 c-55 112 -138 237 -223 337 l-41 48 -62 -59 c-33 -32
-61 -62 -61 -68 0 -5 20 -31 45 -59 52 -57 117 -154 170 -250 l37 -68 -1276 0
c-702 0 -1276 2 -1276 5 0 14 58 118 109 195 75 115 259 299 379 378 162 108
338 180 529 219 132 27 394 24 530 -5 204 -44 382 -122 546 -240 l91 -65 53
59 c29 32 53 64 53 71 0 23 -188 152 -316 216 -95 48 -249 101 -369 126 -86
19 -304 43 -360 39 -11 0 -61 -4 -112 -8z m1887 -1185 c326 -76 567 -335 620
-665 5 -36 10 -82 10 -102 l0 -38 -1615 0 -1615 0 0 -85 0 -85 1268 0 1267 -1
-40 -36 c-113 -101 -358 -231 -574 -303 -255 -85 -566 -143 -843 -156 l-138
-7 0 121 0 122 -90 0 -90 0 0 -120 0 -120 -61 0 c-170 0 -492 45 -706 99 -319
80 -621 221 -793 370 l-35 30 343 1 342 0 0 85 0 85 -700 0 -700 0 0 44 c0
102 46 266 102 365 112 201 283 331 513 391 67 18 151 19 1770 19 1478 1 1708
-1 1765 -14z"/>
<path d="M1017 3249 c-58 -14 -111 -44 -145 -84 -57 -65 -67 -92 -67 -190 0
-80 3 -95 27 -135 56 -96 139 -144 249 -144 111 0 196 53 252 158 17 32 22 58
22 121 0 86 -16 129 -70 193 -53 63 -182 102 -268 81z m129 -203 c51 -51 44
-124 -16 -159 -35 -21 -62 -21 -101 -1 -68 35 -71 135 -5 175 47 29 82 25 122
-15z"/>
<path d="M2510 3249 c-96 -19 -184 -104 -211 -202 -6 -23 -9 -67 -6 -98 13
-147 130 -253 276 -253 164 1 281 117 281 279 0 182 -160 311 -340 274z m116
-188 c66 -40 63 -140 -5 -175 -47 -25 -79 -20 -117 18 -47 47 -47 95 0 142 40
40 75 44 122 15z"/>
<path d="M4002 3250 c-79 -16 -163 -88 -198 -167 -25 -58 -23 -169 4 -225 50
-103 144 -162 257 -162 113 0 206 59 257 163 31 64 31 168 0 232 -59 121 -189
185 -320 159z m141 -210 c40 -45 37 -92 -8 -137 -32 -32 -40 -35 -77 -30 -59
8 -93 45 -93 101 0 99 111 140 178 66z"/>
<path d="M2415 4215 c-5 -2 -31 -6 -56 -10 l-46 -6 16 -79 c9 -43 19 -81 22
-85 8 -7 133 5 149 15 9 6 10 29 5 89 l-7 81 -37 -1 c-20 0 -40 -2 -46 -4z"/>
<path d="M2061 4114 c-41 -19 -77 -36 -79 -38 -6 -6 80 -157 87 -154 82 35
141 64 141 68 0 18 -57 154 -65 156 -6 2 -43 -12 -84 -32z"/>
<path d="M1762 3928 c-34 -29 -62 -57 -62 -63 0 -6 27 -37 59 -69 l59 -59 61
53 c35 32 57 58 53 65 -31 51 -89 125 -97 125 -6 0 -38 -23 -73 -52z"/>
</g>
</svg>
