<?xml version="1.0" standalone="no"?>
<!DOCTYPE svg PUBLIC "-//W3C//DTD SVG 20010904//EN"
 "http://www.w3.org/TR/2001/REC-SVG-20010904/DTD/svg10.dtd">
<svg version="1.0" xmlns="http://www.w3.org/2000/svg"
 width="512.000000pt" height="512.000000pt" viewBox="0 0 512.000000 512.000000"
 preserveAspectRatio="xMidYMid meet">
<metadata>
Created by potrace 1.16, written by Peter Selinger 2001-2019
</metadata>
<g transform="translate(0.000000,512.000000) scale(0.100000,-0.100000)"
fill="#f0f0f0" stroke="none">
<path d="M2175 5104 c-16 -9 -83 -69 -149 -133 -140 -137 -166 -181 -166 -282
0 -200 203 -319 381 -223 59 33 268 244 292 297 57 121 8 280 -104 337 -50 26
-207 28 -254 4z m190 -158 c31 -31 40 -69 25 -105 -16 -40 -220 -238 -253
-246 -33 -9 -82 10 -102 39 -8 11 -15 38 -15 60 0 38 7 47 118 158 114 114
119 118 160 118 32 0 49 -6 67 -24z"/>
<path d="M3280 4923 c-8 -3 -240 -229 -515 -502 -275 -273 -559 -549 -631
-612 l-130 -116 -62 -239 c-34 -131 -62 -252 -62 -268 0 -23 21 -50 107 -138
74 -75 118 -112 143 -119 21 -6 121 -9 253 -7 l217 3 497 497 496 496 -6 38
c-8 47 -24 63 -71 71 l-37 6 -295 -294 -294 -294 0 130 c0 83 -5 139 -13 155
-10 20 -49 40 -192 97 -99 40 -184 74 -190 76 -5 3 191 207 438 454 424 426
447 450 447 485 0 57 -52 99 -100 81z m-733 -1215 l183 -73 0 -175 0 -175
-103 -103 -102 -102 -170 0 -171 0 -68 69 -68 69 47 183 c26 101 51 191 55
199 12 20 192 179 205 180 5 0 92 -33 192 -72z"/>
<path d="M2517 3508 c-44 -34 -39 -115 9 -137 36 -16 58 -14 88 10 33 26 37
88 6 119 -23 23 -77 27 -103 8z"/>
<path d="M2293 3418 c-34 -16 -48 -69 -29 -106 17 -33 34 -42 75 -42 68 0 99
97 45 139 -29 23 -57 26 -91 9z"/>
<path d="M1765 4305 c-46 -45 -28 -136 31 -155 26 -9 39 -8 62 4 35 18 42 33
42 90 0 79 -81 116 -135 61z"/>
<path d="M1605 4145 c-30 -29 -32 -74 -6 -106 16 -20 28 -24 75 -24 64 0 84
14 93 67 4 30 1 41 -20 62 -36 36 -107 37 -142 1z"/>
<path d="M1909 4160 c-28 -17 -43 -66 -30 -99 22 -52 106 -69 155 -30 20 16
26 29 26 59 0 30 -6 43 -26 59 -28 22 -96 28 -125 11z"/>
<path d="M1783 4030 c-49 -20 -60 -114 -18 -155 55 -56 135 -15 135 70 0 74
-51 111 -117 85z"/>
<path d="M3790 3760 c-29 -29 -28 -119 0 -145 26 -24 83 -24 108 -1 38 33 32
135 -8 156 -31 16 -79 11 -100 -10z"/>
<path d="M3633 3605 c-44 -31 -37 -111 13 -134 70 -32 144 5 144 72 0 48 -34
77 -91 77 -24 0 -54 -7 -66 -15z"/>
<path d="M3922 3597 c-52 -55 -12 -137 67 -137 68 0 110 51 90 110 -14 38 -36
50 -92 50 -33 0 -49 -6 -65 -23z"/>
<path d="M3803 3478 c-12 -6 -27 -26 -33 -44 -32 -95 51 -170 124 -113 22 18
26 28 26 74 0 46 -4 56 -26 74 -29 23 -57 26 -91 9z"/>
<path d="M3122 3287 c-157 -158 -182 -187 -182 -214 0 -42 28 -72 73 -80 l39
-6 184 184 c173 173 184 187 184 222 0 49 -28 77 -78 77 -36 0 -48 -10 -220
-183z"/>
<path d="M1023 3371 c-60 -15 -119 -60 -234 -178 -97 -99 -119 -127 -134 -172
-22 -66 -16 -150 13 -207 26 -52 89 -108 138 -125 59 -20 151 -16 205 10 61
29 281 251 308 311 23 51 27 132 9 192 -15 52 -87 132 -137 151 -49 20 -127
28 -168 18z m130 -192 c19 -21 27 -40 27 -66 0 -33 -11 -47 -112 -149 -124
-126 -157 -145 -207 -120 -58 30 -75 80 -47 134 20 37 205 219 236 231 36 15
71 5 103 -30z"/>
<path d="M1385 2439 c-213 -213 -448 -437 -630 -598 l-290 -256 -41 -155 c-43
-163 -44 -200 -7 -228 25 -18 80 -15 101 6 17 17 36 75 74 230 13 53 17 57
238 251 l224 197 148 -58 c169 -66 206 -71 237 -32 50 64 15 108 -129 164 -57
23 -109 44 -113 47 -5 3 133 148 306 322 173 174 320 326 326 338 17 34 13 62
-14 88 -16 17 -35 25 -57 25 -30 0 -64 -31 -373 -341z"/>
<path d="M3855 2759 c-11 -6 -424 -415 -917 -908 l-898 -896 0 342 c0 340 0
342 -22 367 -29 32 -288 136 -339 136 -23 0 -42 -7 -54 -20 -24 -26 -25 -85
-2 -107 9 -9 70 -38 134 -64 l118 -47 3 -383 2 -384 -217 -217 -218 -218 -365
0 -365 0 -160 160 -159 159 32 124 c18 69 32 138 32 154 0 38 -37 73 -77 73
-57 0 -70 -22 -113 -190 -22 -85 -40 -171 -40 -190 0 -33 15 -51 208 -243
l208 -207 434 0 435 0 1223 1223 c672 672 1225 1232 1228 1245 9 32 -13 77
-42 91 -31 14 -43 14 -69 0z"/>
<path d="M2995 2601 c-11 -5 -167 -157 -347 -338 -296 -297 -328 -332 -328
-361 0 -44 38 -82 82 -82 30 0 64 31 370 338 300 299 338 341 338 369 0 57
-62 97 -115 74z"/>
<path d="M4395 2594 c-43 -13 -70 -36 -186 -152 -118 -119 -139 -144 -154
-191 -57 -176 61 -341 245 -341 97 0 136 23 272 158 140 138 168 184 168 279
0 105 -42 179 -130 227 -64 35 -144 42 -215 20z m128 -155 c37 -19 57 -52 57
-94 0 -37 -7 -46 -118 -157 -112 -112 -120 -118 -159 -118 -77 0 -124 71 -90
136 17 32 200 215 232 232 26 15 51 15 78 1z"/>
<path d="M3417 1583 c-155 -154 -336 -327 -402 -385 -66 -58 -127 -114 -136
-124 -18 -22 -39 -90 -39 -125 0 -94 135 -102 160 -10 8 31 31 57 112 128
l101 90 189 -76 188 -75 0 -176 0 -175 -98 -98 -97 -97 -175 0 -174 0 -67 66
c-63 63 -67 68 -62 104 5 32 1 43 -20 64 -52 52 -117 26 -142 -56 -26 -89 -26
-90 102 -220 l117 -118 245 0 246 0 717 718 c695 694 718 718 718 755 0 49
-28 77 -77 77 -37 0 -56 -18 -555 -517 l-518 -518 0 137 c0 128 -1 138 -22
161 -15 16 -86 49 -198 93 -96 37 -177 69 -179 71 -3 2 97 106 222 231 212
212 227 230 227 264 0 45 -25 76 -68 84 -33 7 -39 1 -315 -273z"/>
<path d="M1160 1610 c-40 -40 -18 -121 36 -134 79 -20 136 73 79 129 -31 32
-86 34 -115 5z"/>
<path d="M959 1599 c-27 -10 -49 -46 -49 -78 0 -10 9 -30 21 -45 16 -20 29
-26 59 -26 49 0 80 30 80 77 0 31 -28 73 -49 73 -5 0 -15 2 -23 4 -7 3 -25 0
-39 -5z"/>
<path d="M1484 1319 c-16 -18 -19 -40 -22 -143 l-3 -121 -126 -126 c-116 -117
-125 -129 -125 -164 0 -50 27 -77 78 -77 35 0 47 9 186 149 l148 149 0 157 c0
144 -2 159 -20 177 -28 28 -90 27 -116 -1z"/>
<path d="M4565 1205 c-20 -19 -25 -34 -25 -74 0 -42 4 -53 26 -70 33 -26 75
-27 105 -2 20 16 24 28 24 76 0 48 -4 60 -24 76 -32 26 -77 24 -106 -6z"/>
<path d="M4406 1049 c-20 -16 -26 -29 -26 -59 0 -55 29 -80 92 -80 62 0 88 24
88 79 0 50 -35 81 -90 81 -23 0 -48 -8 -64 -21z"/>
<path d="M4713 1060 c-45 -18 -56 -80 -22 -124 18 -22 28 -26 74 -26 46 0 56
4 74 26 60 77 -28 163 -126 124z"/>
<path d="M4582 925 c-34 -15 -42 -31 -42 -91 0 -55 25 -84 74 -84 49 0 77 27
83 80 9 77 -47 123 -115 95z"/>
<path d="M4175 841 c-11 -5 -100 -90 -197 -188 -198 -199 -203 -209 -148 -265
52 -52 71 -41 264 150 169 168 197 204 188 247 -8 44 -65 74 -107 56z"/>
<path d="M2404 762 c-11 -1 -165 -148 -342 -325 -345 -346 -345 -345 -301
-401 16 -21 29 -26 62 -26 41 0 44 3 359 318 289 288 318 320 318 350 0 18 -4
42 -10 52 -11 20 -55 37 -86 32z"/>
</g>
</svg>
