<?xml version="1.0" standalone="no"?>
<!DOCTYPE svg PUBLIC "-//W3C//DTD SVG 20010904//EN"
 "http://www.w3.org/TR/2001/REC-SVG-20010904/DTD/svg10.dtd">
<svg version="1.0" xmlns="http://www.w3.org/2000/svg"
 width="512.000000pt" height="512.000000pt" viewBox="0 0 512.000000 512.000000"
 preserveAspectRatio="xMidYMid meet">
<metadata>
Created by potrace 1.16, written by Peter Selinger 2001-2019
</metadata>
<g transform="translate(0.000000,512.000000) scale(0.100000,-0.100000)"
fill="#f0f0f0" stroke="none">
<path d="M2335 4434 c-182 -19 -391 -56 -430 -77 -49 -25 -59 -77 -23 -122 19
-25 25 -27 72 -22 28 3 94 14 146 26 52 11 161 26 243 33 381 32 789 -56 1062
-229 l60 -38 -100 -7 c-132 -9 -212 -25 -315 -61 -195 -68 -350 -173 -492
-334 l-37 -42 -35 14 c-77 32 -212 65 -309 75 -227 23 -487 -39 -647 -154
l-48 -35 -93 6 c-85 5 -210 -9 -297 -33 -21 -6 -22 -4 -16 22 25 109 119 273
214 377 65 71 202 175 294 223 88 46 106 65 106 109 0 47 -29 75 -77 75 -73 0
-276 -132 -414 -270 -100 -99 -154 -176 -216 -306 -40 -84 -93 -259 -93 -305
0 -10 -20 -32 -47 -51 -71 -48 -150 -125 -198 -193 -101 -142 -137 -259 -137
-440 0 -137 21 -233 71 -334 l31 -61 -279 0 c-266 0 -279 -1 -305 -21 -34 -26
-37 -88 -5 -120 20 -20 28 -20 382 -18 l362 2 86 -42 86 -41 -24 -66 c-49
-136 -40 -297 25 -427 26 -53 57 -94 117 -154 77 -76 83 -84 89 -135 17 -129
68 -233 159 -326 43 -44 57 -52 87 -52 46 0 80 33 80 78 0 24 -13 46 -54 92
-93 104 -130 211 -108 312 40 176 188 295 392 314 72 7 196 -13 278 -45 42
-16 48 -23 60 -62 80 -271 155 -414 297 -568 30 -32 55 -61 55 -64 0 -9 -177
-64 -250 -77 -90 -17 -290 -16 -374 3 -80 18 -117 9 -135 -29 -31 -69 4 -109
114 -130 105 -20 314 -19 430 1 101 18 240 62 314 100 l49 25 94 -44 c264
-124 573 -138 867 -40 359 119 639 394 733 720 20 68 23 101 22 229 -1 170
-17 247 -78 381 l-36 77 43 -7 c127 -21 204 -25 425 -26 l244 0 -86 -93 c-76
-81 -86 -96 -86 -129 0 -49 28 -78 76 -78 40 0 42 2 243 212 169 176 172 156
-46 378 -181 184 -193 191 -247 149 -20 -16 -26 -29 -26 -61 0 -38 7 -47 87
-129 l87 -89 -237 0 c-224 0 -449 18 -469 39 -5 4 15 34 43 66 101 119 184
278 223 425 23 86 32 291 17 372 -60 316 -256 561 -568 711 -72 35 -103 57
-173 127 -203 204 -495 339 -856 395 -96 15 -418 27 -499 19z m1262 -619 c63
-14 74 -20 96 -54 110 -166 156 -356 123 -510 -8 -41 -18 -76 -21 -79 -2 -3
-33 23 -68 57 -98 96 -171 147 -302 211 -183 90 -354 130 -560 130 l-110 1 45
40 c108 98 288 184 449 214 93 18 248 13 348 -10z m417 -210 c66 -54 148 -161
191 -248 121 -246 94 -533 -73 -776 -31 -47 -62 -86 -68 -88 -7 -2 -13 23 -17
69 -4 40 -18 114 -31 163 -25 90 -91 261 -106 270 -4 2 7 44 25 92 69 185 69
382 -1 568 -9 23 -9 23 80 -50z m-1763 -126 l56 -11 -72 -37 c-95 -50 -178
-115 -257 -201 l-65 -71 -27 40 c-35 50 -117 128 -175 167 l-44 29 59 27 c56
26 199 63 274 72 49 6 185 -2 251 -15z m794 -85 c251 -48 502 -182 631 -340
l37 -44 -28 -42 c-39 -59 -168 -185 -238 -233 l-59 -39 -66 70 c-37 38 -99
105 -138 148 -68 75 -73 79 -105 72 -48 -9 -69 -33 -69 -77 0 -32 9 -50 56
-106 31 -38 84 -95 116 -129 l60 -61 -64 -25 c-134 -54 -232 -72 -383 -72
-110 1 -157 5 -216 22 -90 24 -200 77 -284 137 -73 52 -201 184 -251 259 l-36
55 27 48 c16 26 62 82 104 123 83 82 199 150 324 190 l69 22 53 -37 c30 -20
97 -81 149 -136 85 -89 98 -99 130 -99 49 0 76 28 76 80 0 36 -8 47 -91 134
l-90 95 38 4 c56 6 157 -2 248 -19z m-1736 -133 c-54 -89 -90 -204 -101 -331
-11 -127 -35 -260 -47 -260 -14 0 -80 154 -101 235 -12 46 -23 132 -27 202
l-6 123 56 24 c59 27 171 54 224 55 l33 1 -31 -49z m325 -40 c54 -38 116 -107
161 -181 l34 -56 -18 -54 c-69 -208 -43 -478 67 -702 l47 -97 -45 6 c-171 20
-330 84 -442 177 -66 55 -168 168 -168 187 0 5 8 26 19 47 38 75 62 177 72
302 13 177 44 269 126 382 l34 48 35 -15 c18 -7 54 -28 78 -44z m-734 -327
c22 -111 66 -224 125 -321 l43 -72 -55 -55 c-33 -32 -88 -72 -133 -96 l-78
-40 -36 41 c-74 87 -116 259 -96 397 19 133 62 227 147 322 l48 54 8 -70 c4
-38 16 -110 27 -160z m2933 -123 c31 -84 53 -189 63 -299 l7 -83 -24 10 c-103
39 -350 174 -349 190 1 3 30 28 66 55 36 27 95 82 132 122 37 40 70 73 73 74
4 0 18 -31 32 -69z m-1573 -269 c299 -184 668 -199 1028 -44 l91 39 58 -41
c108 -78 249 -155 376 -206 66 -26 66 -23 9 -135 -28 -54 -63 -96 -149 -182
-119 -118 -128 -136 -97 -181 24 -35 59 -44 98 -28 73 30 243 216 292 319 10
20 21 37 24 37 10 0 59 -112 82 -185 28 -89 35 -253 14 -347 -53 -237 -243
-461 -502 -591 -260 -131 -599 -150 -836 -48 l-47 20 65 63 c117 112 204 275
220 411 l6 54 91 17 c124 24 277 73 305 99 32 30 31 89 -4 116 -33 26 -46 26
-120 1 -63 -22 -185 -54 -245 -64 -36 -6 -36 -6 -42 35 -15 115 -144 279 -277
351 -140 77 -307 118 -479 118 l-97 0 -43 66 c-102 155 -165 385 -146 536 l7
54 116 -116 c80 -80 144 -133 202 -168z m-926 -332 c-3 -3 -60 -5 -127 -5 -91
0 -137 5 -182 19 -60 18 -60 18 -37 35 13 9 58 43 100 77 l77 60 87 -90 c48
-50 85 -93 82 -96z m279 -137 c84 -30 184 -49 300 -59 l87 -7 0 -83 c0 -46 -3
-84 -7 -84 -5 0 -33 7 -63 15 -282 77 -595 -37 -722 -261 l-32 -57 -37 42
c-103 115 -126 278 -59 416 l22 45 101 0 c108 0 193 16 267 49 25 11 52 17 60
14 8 -3 46 -17 83 -30z m747 -74 c151 -22 294 -92 380 -185 44 -48 79 -115 80
-151 0 -22 -4 -23 -77 -23 -162 0 -351 34 -494 89 l-74 28 -7 49 c-3 27 -7 85
-7 130 l-1 80 63 -3 c34 -2 96 -8 137 -14z m-61 -458 c116 -35 232 -52 384
-58 l148 -6 -7 -31 c-13 -61 -46 -137 -85 -196 -44 -65 -163 -180 -187 -180
-20 0 -141 125 -189 196 -65 95 -157 294 -136 294 3 0 36 -9 72 -19z"/>
</g>
</svg>
