<?xml version="1.0" encoding="UTF-8"?>
<svg version="1.1" viewBox="0 0 400 400" xmlns="http://www.w3.org/2000/svg">
<path d="m48.112 76.931c-5.656 2.032-5.842 2.42-27.443 57.116-27.238 68.968-27.542 62.091 3.277 74.07 17.979 6.989 21.163 7.68 25.36 5.51l2.354-1.218 28.572 18.042-1.527 4.501c-4.587 13.514 4.154 26.931 18.756 28.79 3.577 0.455 4.102 0.746 4.102 2.279 0 7.891 10.741 17.546 19.541 17.565l3.526 8e-3 0.965 4.061c2.189 9.214 10.867 16.227 20.108 16.248 2.181 5e-3 2.437 0.321 3.677 4.544 2.748 9.35 10.845 15.208 21.034 15.216 7.564 6e-3 11.787-2.257 18.476-9.903l2.561-2.928 5.051 3.605c9.497 6.776 17.541 8.432 26.362 5.426 6.78-2.31 14.636-11.614 14.636-17.335 0-1.572 0.265-1.764 1.758-1.27 12.001 3.975 26.65-4.768 29.671-17.707l0.993-4.254 4.497-0.091c10.789-0.218 20.121-7.768 22.324-18.061 0.619-2.895 0.683-2.938 3.98-2.723 17.518 1.145 27.966-12.352 24.896-32.161-0.175-1.131 2.264-3.072 10.52-8.37l10.749-6.898 2.837 1.925c4.595 3.119 7.178 2.646 26.329-4.822 28.595-11.151 28.325-10.48 16.443-40.863-8.91-22.784-12.051-26.586-17.477-21.159-3.106 3.106-2.832 4.429 5.024 24.274 4.131 10.435 7.235 19.24 6.897 19.567-0.578 0.561-27.605 11.287-29.73 11.799-0.822 0.198-41.298-100.08-40.593-100.57 1.069-0.738 31.091-12.276 31.296-12.028 0.152 0.184 3.719 9.124 7.925 19.866 8.572 21.89 8.792 22.266 13.032 22.266 8.222 0 7.961-3.586-2.113-29.068-12.116-30.645-11.151-30.195-40.111-18.698-20.846 8.276-22.731 9.689-22.738 17.046-3e-3 3.256-0.014 3.268-4.495 4.954-18.435 6.935-21.32 7.286-37.888 4.612-11.091-1.791-12.855-1.459-14.786 2.778-2.458 5.397 0.736 7.685 13.608 9.75 17.352 2.784 22.975 2.24 39.375-3.809 4.637-1.71 8.565-2.975 8.729-2.811 0.773 0.773 32.802 82.83 32.512 83.298-0.999 1.617-23.935 15.537-24.768 15.032-0.529-0.321-11.801-8.576-25.048-18.343l-24.087-17.759-11.18 0.453c-20.834 0.844-35.415-4.624-51.648-19.368-8.092-7.35-15.099-8.391-21.284-3.162-21.685 18.336-36.171 23.139-48.364 16.035-6.596-3.843-6.26-5.325 2.557-11.274 12.417-8.379 24.896-18.733 43.023-35.695 14.249-13.333 13.666-13.163 33.941-9.908 14.192 2.278 16.413 1.863 17.01-3.18 0.748-6.324-0.136-6.839-16.066-9.366-22.131-3.51-26.336-2.542-39.475 9.091l-4.128 3.655-5.191-1.439c-7.727-2.143-17.134-3.093-35.397-3.576-17.965-0.475-20.708-0.888-29.101-4.381l-5.664-2.357v-3.09c0-7.473-2.141-9.068-23.263-17.336-19.423-7.602-20.561-7.897-24.719-6.403m19.983 18.072c8.31 3.267 15.19 6.015 15.29 6.106 0.671 0.613-39.725 100.81-40.576 100.65-3.337-0.648-29.918-11.792-29.918-12.542 0-1.444 39.004-100.13 39.579-100.14 0.285-6e-3 7.316 2.663 15.625 5.93m35.811 25.508c3.618 1.32 7.322 1.67 23.438 2.219 19.12 0.651 31.678 1.848 32.447 3.092 0.732 1.184-18.128 16.606-31.338 25.624-15.628 10.669-14.87 24.405 1.81 32.825 15.843 7.998 35.116 2.957 56.391-14.748 5.697-4.741 4.766-4.777 10.361 0.403 15.222 14.093 31.886 20.676 53.682 21.208l12.806 0.313 20.314 14.968c26.605 19.603 27.851 20.617 29.144 23.712 4.015 9.609-5.801 18.928-14.952 14.196-1.279-0.661-8.297-5.801-15.597-11.422-11.559-8.902-13.649-10.222-16.201-10.232-3.716-0.016-6.059 2.175-6.043 5.651 0.017 3.586 0.16 3.739 12.195 12.993 13.665 10.509 15.667 15.299 9.211 22.037-6.309 6.586-9.611 5.543-28.4-8.97-10.782-8.328-13.876-9.37-17.206-5.795-4.008 4.301-2.493 6.775 9.953 16.259 11.306 8.614 13.399 12.812 9.352 18.758-6.205 9.117-10.576 8.323-27.959-5.078-10.506-8.099-13.192-9.052-16.419-5.825-3.677 3.677-2.041 7.41 6.086 13.884 8.692 6.924 9.918 9.494 7.323 15.358-3.385 7.653-10.6 8.812-19.031 3.056-5.655-3.862-5.931-4.259-4.044-5.826 12.032-9.986 2.621-33.3-14.352-35.552l-4.01-0.532-1.169-4.02c-2.666-9.171-10.565-15.317-19.687-15.317-3.205 0-3.418-0.133-3.425-2.148-0.031-8.715-10.871-18.164-20.837-18.164-2.166 0-2.594-0.29-2.6-1.758-0.023-5.298-6.944-14.131-13.165-16.803-9.178-3.943-17.98-1.124-27.05 8.662-5.786 6.242-6.817 7.044-8.014 6.228-0.755-0.515-7.625-4.89-15.265-9.723-7.641-4.832-13.749-9.157-13.573-9.611 1.439-3.71 29.737-75.439 31.363-79.496l2.097-5.236 4.034 1.622c2.218 0.892 5.967 2.326 8.33 3.188m12.785 96.191c9.077 3.793 8.292 9.317-3.231 22.751-10.676 12.446-13.753 14.007-19.516 9.904-6.613-4.709-5.459-8.95 6.064-22.287 9.445-10.932 11.812-12.403 16.683-10.368m25.251 20.759c7.295 4.448 6.356 8.713-4.85 22.009-10.41 12.354-14.313 14.256-19.792 9.645-5.719-4.812-4.919-8.846 3.79-19.115 12.51-14.751 14.883-16.178 20.852-12.539m23.616 19.926c4.324 2.236 5.754 7.761 3.126 12.071-1.761 2.889-14.192 17.576-16.731 19.767-7.337 6.333-18.627-3.907-13.123-11.903 2.735-3.974 16.147-19.155 17.729-20.068 2.249-1.298 6.349-1.237 8.999 0.133m24.286 20.627c7.007 5.143 5.686 8.806-9.308 25.807-7.731 8.766-13.42 9.817-17.812 3.29-3.611-5.366-3.025-6.796 8.197-20.002 9.855-11.598 13.274-13.241 18.923-9.095" fill="#301934" fill-rule="evenodd"/>
</svg>
