<svg id="svg" xmlns="http://www.w3.org/2000/svg" xmlns:xlink="http://www.w3.org/1999/xlink" width="400" height="400" viewBox="0, 0, 400,400" version="1.1"><g id="svgg"><path id="path0" d="M48.112 76.931 C 42.456 78.963,42.270 79.351,20.669 134.047 C -6.569 203.015,-6.873 196.138,23.946 208.117 C 41.925 215.106,45.109 215.797,49.306 213.627 L 51.660 212.409 65.946 221.430 L 80.232 230.451 78.705 234.952 C 74.118 248.466,82.859 261.883,97.461 263.742 C 101.038 264.197,101.563 264.488,101.563 266.021 C 101.563 273.912,112.304 283.567,121.104 283.586 L 124.630 283.594 125.595 287.655 C 127.784 296.869,136.462 303.882,145.703 303.903 C 147.884 303.908,148.140 304.224,149.380 308.447 C 152.128 317.797,160.225 323.655,170.414 323.663 C 177.978 323.669,182.201 321.406,188.890 313.760 L 191.451 310.832 196.502 314.437 C 205.999 321.213,214.043 322.869,222.864 319.863 C 229.644 317.553,237.500 308.249,237.500 302.528 C 237.500 300.956,237.765 300.764,239.258 301.258 C 251.259 305.233,265.908 296.490,268.929 283.551 L 269.922 279.297 274.419 279.206 C 285.208 278.988,294.540 271.438,296.743 261.145 C 297.362 258.250,297.426 258.207,300.723 258.422 C 318.241 259.567,328.689 246.070,325.619 226.261 C 325.444 225.130,327.883 223.189,336.139 217.891 L 346.888 210.993 349.725 212.918 C 354.320 216.037,356.903 215.564,376.054 208.096 C 404.649 196.945,404.379 197.616,392.497 167.233 C 383.587 144.449,380.446 140.647,375.020 146.074 C 371.914 149.180,372.188 150.503,380.044 170.348 C 384.175 180.783,387.279 189.588,386.941 189.915 C 386.363 190.476,359.336 201.202,357.211 201.714 C 356.389 201.912,315.913 101.633,316.618 101.146 C 317.687 100.408,347.709 88.870,347.914 89.118 C 348.066 89.302,351.633 98.242,355.839 108.984 C 364.411 130.874,364.631 131.250,368.871 131.250 C 377.093 131.250,376.832 127.664,366.758 102.182 C 354.642 71.537,355.607 71.987,326.647 83.484 C 305.801 91.760,303.916 93.173,303.909 100.530 C 303.906 103.786,303.895 103.798,299.414 105.484 C 280.979 112.419,278.094 112.770,261.526 110.096 C 250.435 108.305,248.671 108.637,246.740 112.874 C 244.282 118.271,247.476 120.559,260.348 122.624 C 277.700 125.408,283.323 124.864,299.723 118.815 C 304.360 117.105,308.288 115.840,308.452 116.004 C 309.225 116.777,341.254 198.834,340.964 199.302 C 339.965 200.919,317.029 214.839,316.196 214.334 C 315.667 214.013,304.395 205.758,291.148 195.991 L 267.061 178.232 255.881 178.685 C 235.047 179.529,220.466 174.061,204.233 159.317 C 196.141 151.967,189.134 150.926,182.949 156.155 C 161.264 174.491,146.778 179.294,134.585 172.190 C 127.989 168.347,128.325 166.865,137.142 160.916 C 149.559 152.537,162.038 142.183,180.165 125.221 C 194.414 111.888,193.831 112.058,214.106 115.313 C 228.298 117.591,230.519 117.176,231.116 112.133 C 231.864 105.809,230.980 105.294,215.050 102.767 C 192.919 99.257,188.714 100.225,175.575 111.858 L 171.447 115.513 166.256 114.074 C 158.529 111.931,149.122 110.981,130.859 110.498 C 112.894 110.023,110.151 109.610,101.758 106.117 L 96.094 103.760 96.094 100.670 C 96.094 93.197,93.953 91.602,72.831 83.334 C 53.408 75.732,52.270 75.437,48.112 76.931 M68.095 95.003 C 76.405 98.270,83.285 101.018,83.385 101.109 C 84.056 101.722,43.660 201.922,42.809 201.756 C 39.472 201.108,12.891 189.964,12.891 189.214 C 12.891 187.770,51.895 89.085,52.470 89.073 C 52.755 89.067,59.786 91.736,68.095 95.003 M103.906 120.511 C 107.524 121.831,111.228 122.181,127.344 122.730 C 146.464 123.381,159.022 124.578,159.791 125.822 C 160.523 127.006,141.663 142.428,128.453 151.446 C 112.825 162.115,113.583 175.851,130.263 184.271 C 146.106 192.269,165.379 187.228,186.654 169.523 C 192.351 164.782,191.420 164.746,197.015 169.926 C 212.237 184.019,228.901 190.602,250.697 191.134 L 263.503 191.447 283.817 206.415 C 310.422 226.018,311.668 227.032,312.961 230.127 C 316.976 239.736,307.160 249.055,298.009 244.323 C 296.730 243.662,289.712 238.522,282.412 232.901 C 270.853 223.999,268.763 222.679,266.211 222.669 C 262.495 222.653,260.152 224.844,260.168 228.320 C 260.185 231.906,260.328 232.059,272.363 241.313 C 286.028 251.822,288.030 256.612,281.574 263.350 C 275.265 269.936,271.963 268.893,253.174 254.380 C 242.392 246.052,239.298 245.010,235.968 248.585 C 231.960 252.886,233.475 255.360,245.921 264.844 C 257.227 273.458,259.320 277.656,255.273 283.602 C 249.068 292.719,244.697 291.925,227.314 278.524 C 216.808 270.425,214.122 269.472,210.895 272.699 C 207.218 276.376,208.854 280.109,216.981 286.583 C 225.673 293.507,226.899 296.077,224.304 301.941 C 220.919 309.594,213.704 310.753,205.273 304.997 C 199.618 301.135,199.342 300.738,201.229 299.171 C 213.261 289.185,203.850 265.871,186.877 263.619 L 182.867 263.087 181.698 259.067 C 179.032 249.896,171.133 243.750,162.011 243.750 C 158.806 243.750,158.593 243.617,158.586 241.602 C 158.555 232.887,147.715 223.438,137.749 223.438 C 135.583 223.438,135.155 223.148,135.149 221.680 C 135.126 216.382,128.205 207.549,121.984 204.877 C 112.806 200.934,104.004 203.753,94.934 213.539 C 89.148 219.781,88.117 220.583,86.920 219.767 C 86.165 219.252,79.295 214.877,71.655 210.044 C 64.014 205.212,57.906 200.887,58.082 200.433 C 59.521 196.723,87.819 124.994,89.445 120.937 L 91.542 115.701 95.576 117.323 C 97.794 118.215,101.543 119.649,103.906 120.511 M116.691 216.702 C 125.768 220.495,124.983 226.019,113.460 239.453 C 102.784 251.899,99.707 253.460,93.944 249.357 C 87.331 244.648,88.485 240.407,100.008 227.070 C 109.453 216.138,111.820 214.667,116.691 216.702 M141.942 237.461 C 149.237 241.909,148.298 246.174,137.092 259.470 C 126.682 271.824,122.779 273.726,117.300 269.115 C 111.581 264.303,112.381 260.269,121.090 250.000 C 133.600 235.249,135.973 233.822,141.942 237.461 M165.558 257.387 C 169.882 259.623,171.312 265.148,168.684 269.458 C 166.923 272.347,154.492 287.034,151.953 289.225 C 144.616 295.558,133.326 285.318,138.830 277.322 C 141.565 273.348,154.977 258.167,156.559 257.254 C 158.808 255.956,162.908 256.017,165.558 257.387 M189.844 278.014 C 196.851 283.157,195.530 286.820,180.536 303.821 C 172.805 312.587,167.116 313.638,162.724 307.111 C 159.113 301.745,159.699 300.315,170.921 287.109 C 180.776 275.511,184.195 273.868,189.844 278.014 " stroke="none" fill="#301934" fill-rule="evenodd"></path></g></svg>