<?xml version="1.0" standalone="no"?>
<!DOCTYPE svg PUBLIC "-//W3C//DTD SVG 20010904//EN"
 "http://www.w3.org/TR/2001/REC-SVG-20010904/DTD/svg10.dtd">
<svg version="1.0" xmlns="http://www.w3.org/2000/svg"
 width="512.000000pt" height="512.000000pt" viewBox="0 0 512.000000 512.000000"
 preserveAspectRatio="xMidYMid meet">
<metadata>
Created by potrace 1.16, written by Peter Selinger 2001-2019
</metadata>
<g transform="translate(0.000000,512.000000) scale(0.100000,-0.100000)"
fill="#f0f0f0" stroke="none">
<path d="M2344 4686 c-165 -50 -306 -95 -313 -100 -11 -7 -13 -42 -9 -167 l5
-159 -66 0 c-36 1 -300 9 -586 19 -286 10 -530 15 -542 10 -19 -7 -37 -53
-113 -287 -49 -153 -90 -288 -90 -300 0 -29 18 -45 126 -116 l91 -60 -40 -158
c-23 -91 -37 -167 -33 -181 3 -14 17 -29 33 -35 17 -6 277 -17 652 -27 344 -8
626 -17 627 -18 4 -5 36 -348 33 -351 -2 -2 -188 -8 -414 -13 l-410 -9 -294
-160 c-301 -164 -321 -178 -306 -225 10 -30 433 -423 463 -430 15 -4 238 -15
497 -24 259 -10 472 -19 474 -21 2 -2 6 -208 9 -459 l5 -455 -39 14 c-101 35
-272 27 -370 -18 -28 -13 -69 -40 -90 -59 l-39 -35 -150 -4 c-164 -4 -194 -12
-269 -79 -112 -98 -130 -297 -34 -386 59 -55 8 -53 1167 -53 l1070 0 15 22
c20 28 20 58 2 84 -13 18 -32 19 -268 24 l-253 5 -71 590 c-40 325 -75 634
-79 688 l-7 97 38 0 c22 0 237 -9 479 -19 289 -13 446 -16 458 -9 38 20 38 51
2 172 l-35 113 55 294 c30 162 55 306 55 321 0 60 7 59 -570 48 -288 -6 -525
-8 -528 -5 -6 5 -26 325 -20 328 1 2 253 -4 559 -12 l555 -14 357 236 c291
193 358 241 363 263 4 15 3 34 -3 43 -12 19 -602 569 -623 580 -8 5 -271 16
-585 26 -313 10 -571 19 -573 20 -1 1 5 109 13 241 8 131 15 245 15 252 0 22
-39 52 -67 51 -16 -1 -163 -42 -329 -93z m252 -193 c-3 -71 -9 -156 -12 -191
l-6 -64 -207 8 c-113 3 -207 8 -209 9 -2 2 -4 56 -5 121 l-2 117 210 63 c116
35 216 63 224 63 11 1 13 -21 7 -126z m-186 -378 c734 -25 1349 -45 1366 -45
27 0 67 -33 288 -237 141 -130 256 -239 256 -242 0 -3 -132 -93 -292 -198
l-292 -193 -66 0 c-58 0 -1386 34 -2364 60 -209 6 -381 12 -383 14 -2 2 8 51
23 110 l26 106 188 0 c206 0 213 2 213 61 0 59 -12 63 -236 69 l-202 5 -82 55
-81 56 70 214 70 215 82 -3 c44 -1 682 -23 1416 -47z m116 -1019 c2 -1 21
-330 20 -332 -1 -1 -67 -4 -147 -7 l-146 -6 -12 127 c-6 70 -15 150 -18 178
l-5 51 153 -5 c85 -2 155 -5 155 -6z m1111 -458 c-2 -7 -26 -131 -53 -276
l-48 -262 21 -73 c12 -39 20 -74 18 -76 -3 -2 -523 17 -1157 43 -634 26 -1167
46 -1184 46 -27 0 -55 22 -190 150 -87 82 -160 153 -162 158 -1 5 103 65 232
134 l234 126 684 12 c697 12 1418 25 1542 28 51 2 67 -1 63 -10z m-1111 -778
l71 0 7 -102 c4 -57 38 -362 77 -678 38 -316 69 -583 69 -592 0 -17 -15 -18
-183 -18 l-183 0 4 83 c6 106 -13 174 -72 260 l-43 63 -5 498 -5 499 96 -7
c53 -3 128 -6 167 -6z m-469 -1010 c109 -33 203 -156 203 -265 0 -43 -5 -60
-24 -82 l-24 -28 -185 -3 -185 -3 9 46 c16 85 -20 194 -85 254 -14 14 -26 28
-26 33 0 11 72 46 117 58 47 11 144 7 200 -10z m-450 -131 c95 -35 149 -165
93 -224 l-23 -25 -202 0 c-190 0 -204 1 -229 21 -20 16 -26 29 -26 60 0 72 36
127 105 163 36 19 237 22 282 5z"/>
<path d="M1351 3964 c-24 -30 -22 -70 5 -90 16 -13 106 -21 344 -30 185 -7
200 -3 200 57 0 58 -20 65 -201 73 -90 3 -200 9 -245 12 -80 6 -81 6 -103 -22z"/>
<path d="M2666 3478 c-9 -12 -16 -29 -16 -38 0 -9 7 -26 16 -38 15 -22 18 -22
258 -22 223 0 244 2 259 18 22 24 21 65 -1 85 -16 15 -49 17 -260 17 -238 0
-241 0 -256 -22z"/>
<path d="M3010 2499 c-112 -7 -127 -10 -143 -30 -24 -29 -18 -68 13 -90 23
-16 39 -17 244 -5 209 12 220 13 237 35 23 28 24 50 3 79 -14 21 -22 22 -122
21 -59 -1 -163 -6 -232 -10z"/>
<path d="M1182 2324 c-28 -19 -30 -74 -4 -97 16 -15 48 -17 244 -17 205 0 226
2 241 18 25 27 22 78 -5 96 -19 13 -59 16 -238 16 -179 0 -219 -3 -238 -16z"/>
<path d="M2502 1323 c-29 -11 -31 -53 -12 -260 11 -114 24 -218 30 -230 19
-45 103 -39 115 9 3 13 -3 119 -14 237 -16 166 -24 218 -37 232 -16 18 -54 24
-82 12z"/>
<path d="M3520 1081 c-117 -36 -209 -130 -244 -250 -38 -130 -1 -237 99 -282
37 -17 73 -19 445 -19 377 0 408 2 447 19 97 44 127 167 69 284 -30 63 -70
100 -136 131 -36 16 -67 20 -155 21 l-111 2 -49 36 c-28 20 -72 44 -99 52 -52
16 -221 19 -266 6z m241 -138 c21 -8 39 -17 39 -20 0 -2 -11 -16 -25 -31 -40
-43 -59 -92 -63 -164 l-4 -68 -135 0 c-131 0 -135 1 -160 26 -23 23 -25 31
-19 72 22 162 200 252 367 185z m385 -102 c69 -32 109 -111 79 -157 -15 -24
-17 -24 -185 -24 -187 0 -200 4 -200 63 0 25 40 106 53 107 1 0 20 7 42 15 58
20 161 19 211 -4z"/>
</g>
</svg>
