<?xml version="1.0" encoding="UTF-8"?>
<svg version="1.1" viewBox="0 0 400 400" xmlns="http://www.w3.org/2000/svg">
<path d="m17.188 1.729c-6.044 2.317-13.223 9.593-15.513 15.721l-1.703 4.559 0.209 80.597 0.21 80.597 1.861 3.516c8.159 15.406 11.686 16.406 57.856 16.406h34.78l-23.926 24.023c-28.636 28.752-28.384 28.386-28.384 41.211 0 13.542-3.72 9.011 58.837 71.661 63.005 63.1 58.739 59.589 72.413 59.589 13.319 0 10.611 2.103 57.698-44.802 24.404-24.31 40.961-41.396 41.645-42.974 2.41-5.557-1.286-11.052-7.433-11.052h-3.579l-40.65 40.535c-43.062 42.941-42.463 42.408-47.681 42.408-5.257 0-4.157 1.001-58.87-53.536-57.738-57.553-56.364-56.047-56.364-61.772 0-5.668-6.912 1.605 103.81-109.24l101.26-101.37 51.637 1e-3c62.752 0 58.167-1.172 45.363 11.595-8.423 8.399-8.91 8.753-10.965 7.972-26.589-10.109-43.787 30.932-18.299 43.668 18.707 9.348 40.673-9.439 33.401-28.566-1.016-2.674 15.784-20.564 17.767-18.918 0.82 0.681 1.02 11.102 1.02 53.287v52.44l-76.172 76.184v3.576c0 6.341 6.277 10.027 11.953 7.018 1.16-0.615 19.775-18.816 41.367-40.448l39.258-39.329v-59.179-59.179l-3.208-3.48-3.207-3.48 3.207-3.644c8.988-10.21-1.724-20.923-11.935-11.935l-3.644 3.208-3.48-3.208c-3.407-3.141-3.597-3.207-9.142-3.207h-5.663l-42.29-42.188-149.58 0.041-149.58 0.04-4.296 1.648m308.98 27.177 13.264 13.282h-41.773l-41.773-1e-3 -45.914 45.89c-45.202 45.179-45.913 45.845-45.913 42.998-1e-3 -15.215-17.378-26.481-32.26-20.913-23.003 8.607-18.75 42.948 5.678 45.841l4.067 0.481-30.205 30.235h-42.534c-47.906 0-46.689 0.143-50.84-5.986l-1.953-2.884v-76.229c0-84.929-0.374-78.927 5.174-83.062 3.666-2.733 5.728-2.772 149.52-2.853l142.2-0.08 13.264 13.281m-262.74 20.359c-14.097 7.044-17.139 26.667-5.88 37.925 9.154 9.154 25.776 8.796 34.392-0.741 17.652-19.538-4.919-48.973-28.512-37.184m61.315 1.712c-1.766 1.781-50.509 87.535-52.598 92.534-3.227 7.724 7.263 15.065 13.023 9.114 2.193-2.265 52.338-91.557 52.847-94.102 1.409-7.045-8.299-12.565-13.272-7.546m-46.508 13.148c0.868 0.465 2.08 2.047 2.694 3.516 3.016 7.219-6.131 13.2-11.689 7.643-5.887-5.887 1.567-15.134 8.995-11.159m268.99 30.832c4.507 4.507 1.347 12.074-5.041 12.074-4.399 0-7.033-2.632-7.033-7.031 0-6.488 7.498-9.619 12.074-5.043m-79.652 21.432c-2.396 1.02-18.959 18.101-19.838 20.459-1.709 4.585-0.459 6.173 24.343 30.925l23.679 23.633h3.843 3.842l9.551-9.57c11.481-11.505 12.747-14.755 7.709-19.794-3.937-3.937-8.201-2.827-15.164 3.95l-5.996 5.835-10.474-10.474 5.901-5.937c13.779-13.86 2.056-25.022-11.982-11.41l-5.69 5.517-5.041-4.996-5.04-4.996 5.842-6.004c5.475-5.626 5.842-6.219 5.826-9.414-0.032-6.315-5.634-10.14-11.311-7.724m-122.21 10.612c4.676 4.231 0.947 12.843-5.561 12.843-2.282 0-6.999-4.842-6.964-7.149 0.094-6.252 7.958-9.828 12.525-5.694m64.731 46.376c-1.891 1.891-2.283 2.93-2.283 6.041v3.757l24.037 24.037 24.037 24.038h3.826 3.825l10.092-9.961c13.349-13.174 14.724-16.316 9.448-21.592-4.283-4.282-7.951-3.158-16.199 4.965l-7.113 7.006-20.347-20.287c-23.039-22.972-23.854-23.472-29.323-18.004m-33.312 34.222c-2.669 0.486-5.69 4.583-5.69 7.716 0 3.059 29.471 61.875 32.549 64.958 6.853 6.867 16.629-2.415 12.033-11.424l-1.512-2.963 7.655-7.628 7.656-7.627 2.255 1.138c7.284 3.674 14.376 0.408 14.36-6.613-0.011-4.617-1.615-5.665-33.199-21.696-30.259-15.359-32.781-16.466-36.107-15.861m30.066 31.323 7.241 3.686-3.902 3.844c-2.147 2.115-4.046 3.69-4.221 3.501-0.978-1.054-7.449-14.79-6.952-14.757 0.326 0.022 3.852 1.698 7.834 3.726m-67.397 5.591c-3.159 1.343-16.692 15.941-18.484 19.94-10.255 22.877 17.125 43.248 37.255 27.718 4.97-3.834 8.213-4.12 11.46-1.009 4.283 4.104 3.344 7.091-4.858 15.455-10.866 11.081-10.799 19.555 0.155 19.555h3.879l7.986-8.203c9.584-9.845 10.896-12.267 11.294-20.853 0.993-21.367-21.854-32.026-39.62-18.483-5.171 3.943-9.757 3.42-12.247-1.397-1.938-3.746-0.843-5.898 7.144-14.041 6.539-6.666 7.364-7.822 7.364-10.314 0-6.834-5.455-10.864-11.328-8.368m145.64 33.552c-5.842 5.842-0.399 15.78 7.549 13.785 8.966-2.25 7.228-16.069-2.02-16.069-2.545 0-3.738 0.493-5.529 2.284" fill="#fdf6ff" fill-rule="evenodd"/>
</svg>
