<svg id="svg" xmlns="http://www.w3.org/2000/svg" xmlns:xlink="http://www.w3.org/1999/xlink" width="400" height="400" viewBox="0, 0, 400,400" version="1.1"><g id="svgg"><path id="path0" d="M17.188 1.729 C 11.144 4.046,3.965 11.322,1.675 17.450 L -0.028 22.009 0.181 102.606 L 0.391 183.203 2.252 186.719 C 10.411 202.125,13.938 203.125,60.108 203.125 L 94.888 203.125 70.962 227.148 C 42.326 255.900,42.578 255.534,42.578 268.359 C 42.578 281.901,38.858 277.370,101.415 340.020 C 164.420 403.120,160.154 399.609,173.828 399.609 C 187.147 399.609,184.439 401.712,231.526 354.807 C 255.930 330.497,272.487 313.411,273.171 311.833 C 275.581 306.276,271.885 300.781,265.738 300.781 L 262.159 300.781 221.509 341.316 C 178.447 384.257,179.046 383.724,173.828 383.724 C 168.571 383.724,169.671 384.725,114.958 330.188 C 57.220 272.635,58.594 274.141,58.594 268.416 C 58.594 262.748,51.682 270.021,162.408 159.180 L 263.670 57.812 315.307 57.813 C 378.059 57.813,373.474 56.641,360.670 69.408 C 352.247 77.807,351.760 78.161,349.705 77.380 C 323.116 67.271,305.918 108.312,331.406 121.048 C 350.113 130.396,372.079 111.609,364.807 92.482 C 363.791 89.808,380.591 71.918,382.574 73.564 C 383.394 74.245,383.594 84.666,383.594 126.851 L 383.594 179.291 345.508 217.383 L 307.422 255.475 307.422 259.051 C 307.422 265.392,313.699 269.078,319.375 266.069 C 320.535 265.454,339.150 247.253,360.742 225.621 L 400.000 186.292 400.000 127.113 L 400.000 67.934 396.792 64.454 L 393.585 60.974 396.792 57.330 C 405.780 47.120,395.068 36.407,384.857 45.395 L 381.213 48.603 377.733 45.395 C 374.326 42.254,374.136 42.188,368.591 42.188 L 362.928 42.188 341.783 21.094 L 320.638 0.000 171.061 0.041 L 21.484 0.081 17.188 1.729 M326.172 28.906 L 339.436 42.188 297.663 42.188 L 255.890 42.187 209.976 88.077 C 164.774 133.256,164.063 133.922,164.063 131.075 C 164.062 115.860,146.685 104.594,131.803 110.162 C 108.800 118.769,113.053 153.110,137.481 156.003 L 141.548 156.484 126.445 171.602 L 111.343 186.719 68.809 186.719 C 20.903 186.719,22.120 186.862,17.969 180.733 L 16.016 177.849 16.016 101.620 C 16.016 16.691,15.642 22.693,21.190 18.558 C 24.856 15.825,26.918 15.786,170.712 15.705 L 312.908 15.625 326.172 28.906 M63.435 49.265 C 49.338 56.309,46.296 75.932,57.555 87.190 C 66.709 96.344,83.331 95.986,91.947 86.449 C 109.599 66.911,87.028 37.476,63.435 49.265 M124.750 50.977 C 122.984 52.758,74.241 138.512,72.152 143.511 C 68.925 151.235,79.415 158.576,85.175 152.625 C 87.368 150.360,137.513 61.068,138.022 58.523 C 139.431 51.478,129.723 45.958,124.750 50.977 M78.242 64.125 C 79.110 64.590,80.322 66.172,80.936 67.641 C 83.952 74.860,74.805 80.841,69.247 75.284 C 63.360 69.397,70.814 60.150,78.242 64.125 M347.230 94.957 C 351.737 99.464,348.577 107.031,342.189 107.031 C 337.790 107.031,335.156 104.399,335.156 100.000 C 335.156 93.512,342.654 90.381,347.230 94.957 M267.578 116.389 C 265.182 117.409,248.619 134.490,247.740 136.848 C 246.031 141.433,247.281 143.021,272.083 167.773 L 295.762 191.406 299.605 191.406 L 303.447 191.406 312.998 181.836 C 324.479 170.331,325.745 167.081,320.707 162.042 C 316.770 158.105,312.506 159.215,305.543 165.992 L 299.547 171.827 294.310 166.590 L 289.073 161.353 294.974 155.416 C 308.753 141.556,297.030 130.394,282.992 144.006 L 277.302 149.523 272.261 144.527 L 267.221 139.531 273.063 133.527 C 278.538 127.901,278.905 127.308,278.889 124.113 C 278.857 117.798,273.255 113.973,267.578 116.389 M145.365 127.001 C 150.041 131.232,146.312 139.844,139.804 139.844 C 137.522 139.844,132.805 135.002,132.840 132.695 C 132.934 126.443,140.798 122.867,145.365 127.001 M210.096 173.377 C 208.205 175.268,207.813 176.307,207.813 179.418 L 207.813 183.175 231.850 207.212 L 255.887 231.250 259.713 231.250 L 263.538 231.250 273.630 221.289 C 286.979 208.115,288.354 204.973,283.078 199.697 C 278.795 195.415,275.127 196.539,266.879 204.662 L 259.766 211.668 239.419 191.381 C 216.380 168.409,215.565 167.909,210.096 173.377 M176.784 207.599 C 174.115 208.085,171.094 212.182,171.094 215.315 C 171.094 218.374,200.565 277.190,203.643 280.273 C 210.496 287.140,220.272 277.858,215.676 268.849 L 214.164 265.886 221.819 258.258 L 229.475 250.631 231.730 251.769 C 239.014 255.443,246.106 252.177,246.090 245.156 C 246.079 240.539,244.475 239.491,212.891 223.460 C 182.632 208.101,180.110 206.994,176.784 207.599 M206.850 238.922 L 214.091 242.608 210.189 246.452 C 208.042 248.567,206.143 250.142,205.968 249.953 C 204.990 248.899,198.519 235.163,199.016 235.196 C 199.342 235.218,202.868 236.894,206.850 238.922 M139.453 244.513 C 136.294 245.856,122.761 260.454,120.969 264.453 C 110.714 287.330,138.094 307.701,158.224 292.171 C 163.194 288.337,166.437 288.051,169.684 291.162 C 173.967 295.266,173.028 298.253,164.826 306.617 C 153.960 317.698,154.027 326.172,164.981 326.172 L 168.860 326.172 176.846 317.969 C 186.430 308.124,187.742 305.702,188.140 297.116 C 189.133 275.749,166.286 265.090,148.520 278.633 C 143.349 282.576,138.763 282.053,136.273 277.236 C 134.335 273.490,135.430 271.338,143.417 263.195 C 149.956 256.529,150.781 255.373,150.781 252.881 C 150.781 246.047,145.326 242.017,139.453 244.513 M285.096 278.065 C 279.254 283.907,284.697 293.845,292.645 291.850 C 301.611 289.600,299.873 275.781,290.625 275.781 C 288.080 275.781,286.887 276.274,285.096 278.065 " stroke="none" fill="#fdf6ff" fill-rule="evenodd"></path></g></svg>