<?xml version="1.0" standalone="no"?>
<!DOCTYPE svg PUBLIC "-//W3C//DTD SVG 20010904//EN"
 "http://www.w3.org/TR/2001/REC-SVG-20010904/DTD/svg10.dtd">
<svg version="1.0" xmlns="http://www.w3.org/2000/svg"
 width="512.000000pt" height="512.000000pt" viewBox="0 0 512.000000 512.000000"
 preserveAspectRatio="xMidYMid meet">
<metadata>
Created by potrace 1.16, written by Peter Selinger 2001-2019
</metadata>
<g transform="translate(0.000000,512.000000) scale(0.100000,-0.100000)"
fill="#ffffff" stroke="none">
<path d="M1735 4499 c-259 -49 -600 -154 -832 -254 -69 -30 -127 -56 -128 -57
-63 -84 -233 -374 -316 -540 -226 -451 -363 -890 -430 -1384 -25 -185 -37
-710 -21 -898 11 -126 -7 -103 182 -230 317 -212 629 -366 1007 -496 86 -30
119 -37 129 -29 40 33 264 406 264 439 0 10 -37 30 -103 58 -123 52 -299 143
-304 158 -2 6 15 25 37 43 l41 33 102 -42 c635 -264 1311 -316 1952 -150 125
32 320 98 433 147 l103 44 45 -33 c24 -17 43 -36 41 -42 -5 -15 -188 -110
-304 -158 -81 -33 -103 -46 -103 -61 0 -36 221 -400 265 -437 17 -14 294 84
513 181 322 143 775 421 795 487 5 15 11 171 14 347 4 250 2 357 -11 490 -66
697 -284 1322 -679 1945 -43 69 -84 128 -91 132 -66 43 -479 193 -671 243
-145 38 -378 85 -388 78 -6 -3 -39 -66 -74 -140 -50 -104 -68 -133 -81 -129
-75 20 -334 37 -572 37 -206 0 -495 -19 -551 -37 -13 -4 -31 24 -80 126 -35
72 -70 135 -79 139 -8 4 -55 0 -105 -10z m123 -1651 c181 -67 306 -263 305
-478 -1 -103 -14 -163 -55 -250 -40 -83 -141 -186 -220 -223 -245 -116 -527
33 -612 322 -21 72 -21 221 0 292 82 279 338 428 582 337z m1699 0 c80 -29
166 -99 216 -176 82 -124 112 -264 84 -403 -53 -269 -264 -440 -503 -408 -135
18 -273 125 -338 261 -103 218 -65 460 99 623 124 124 285 161 442 103z"/>
</g>
</svg>
