<?xml version="1.0" standalone="no"?>
<!DOCTYPE svg PUBLIC "-//W3C//DTD SVG 20010904//EN"
 "http://www.w3.org/TR/2001/REC-SVG-20010904/DTD/svg10.dtd">
<svg version="1.0" xmlns="http://www.w3.org/2000/svg"
 width="512.000000pt" height="512.000000pt" viewBox="0 0 512.000000 512.000000"
 preserveAspectRatio="xMidYMid meet">
<metadata>
Created by potrace 1.16, written by Peter Selinger 2001-2019
</metadata>
<g transform="translate(0.000000,512.000000) scale(0.100000,-0.100000)"
fill="#f0f0f0" stroke="none">
<path d="M1886 4863 l-28 -28 5 -115 c7 -144 33 -244 97 -375 130 -264 366
-455 655 -530 33 -8 113 -20 178 -25 154 -13 199 -35 241 -117 14 -29 16 -81
14 -460 l-3 -427 -50 -12 c-89 -23 -189 -81 -268 -154 -82 -77 -135 -144 -280
-356 -95 -137 -192 -255 -226 -274 -13 -6 -40 6 -112 51 -198 126 -288 154
-474 146 -147 -6 -207 -25 -403 -129 -520 -274 -610 -303 -984 -315 -194 -6
-199 -7 -223 -31 l-25 -25 0 -497 0 -497 25 -25 c25 -25 26 -25 262 -31 287
-7 300 -9 762 -161 594 -196 844 -246 1222 -246 366 0 658 61 1009 212 181 77
534 279 571 326 51 65 2 162 -81 162 -34 0 -68 -16 -203 -97 -427 -255 -779
-373 -1170 -391 -389 -19 -669 32 -1273 232 -459 151 -486 158 -726 163 l-198
5 0 348 0 347 173 6 c305 10 470 64 877 286 215 117 311 153 418 152 120 -1
165 -19 377 -150 176 -109 286 -141 550 -161 300 -22 529 -66 651 -126 96 -46
94 -64 -10 -113 -164 -77 -464 -117 -998 -130 -327 -9 -331 -9 -365 -51 -7 -8
-13 -36 -13 -61 0 -37 5 -52 28 -74 l27 -28 330 6 c490 8 814 47 1017 121 330
121 463 176 623 256 223 112 293 132 460 132 145 -1 267 -28 402 -92 l88 -41
-160 -65 c-88 -36 -170 -75 -182 -86 -66 -62 -19 -178 72 -178 26 0 424 158
488 193 70 39 88 121 42 188 -52 78 -221 179 -390 234 -134 43 -233 56 -407
53 l-157 -2 -36 49 c-20 28 -79 120 -132 205 -253 406 -367 549 -516 644 -62
40 -147 76 -178 76 -20 0 -20 4 -17 428 3 414 4 428 24 467 44 81 88 102 241
115 168 14 274 43 406 113 315 166 527 510 527 852 0 76 -2 84 -26 109 l-27
26 -232 0 c-258 0 -326 -9 -466 -59 -110 -41 -215 -102 -310 -184 -74 -64
-174 -185 -214 -260 -11 -20 -22 -37 -25 -37 -3 0 -22 28 -42 63 -122 207
-334 368 -583 443 -86 27 -101 28 -355 32 l-266 4 -28 -29z m546 -199 c164
-36 343 -148 445 -278 68 -86 135 -225 157 -323 25 -114 26 -113 -36 -92 -29
9 -96 20 -148 24 -141 10 -224 31 -335 85 -120 58 -205 126 -279 223 -62 81
-128 215 -146 297 -6 30 -14 64 -17 74 -5 18 0 19 140 13 80 -4 178 -14 219
-23z m1812 -1 c-59 -276 -213 -478 -449 -589 -103 -48 -190 -69 -325 -79 -52
-4 -119 -15 -147 -24 -52 -17 -53 -17 -53 1 0 53 37 174 80 263 78 161 188
275 340 354 141 73 249 97 463 100 l97 1 -6 -27z m-935 -2119 c67 -33 187
-151 267 -264 33 -47 120 -179 193 -295 73 -115 139 -220 148 -232 14 -21 14
-23 -3 -30 -11 -3 -55 -27 -99 -51 -72 -41 -286 -136 -289 -130 -1 2 -10 22
-20 45 -68 156 -367 254 -896 293 -85 7 -158 14 -162 16 -4 3 19 37 50 77 32
40 105 142 163 227 175 260 293 361 442 379 77 8 137 -2 206 -35z"/>
<path d="M4086 1124 c-21 -21 -26 -36 -26 -74 0 -38 5 -53 26 -74 21 -21 36
-26 74 -26 66 0 100 34 100 100 0 38 -5 53 -26 74 -38 37 -110 37 -148 0z"/>
</g>
</svg>
