<svg id="圖層_1" data-name="圖層 1" xmlns="http://www.w3.org/2000/svg" viewBox="0 0 580.42 252.72"><defs><style>.cls-1{fill:#d5d5f4;}.cls-2{fill:#9b8cd1;}.cls-3{fill:#fdf6ff;}</style></defs><path class="cls-1" d="M277,623.83c37.27,24.85,83.21,17.87,102.62-15.59s4.93-80.73-32.34-105.58" transform="translate(-268.15 -386)"/><path class="cls-1" d="M383.15,485.36c-37.27-24.85-83.21-17.86-102.62,15.6s-4.92,80.73,32.34,105.58" transform="translate(-268.15 -386)"/><ellipse class="cls-2" cx="75.64" cy="31.27" rx="29.16" ry="31.27"/><polygon class="cls-2" points="75.64 77.13 0 207.55 151.28 207.55 75.64 77.13"/><path class="cls-3" d="M461.09,446.89c0-8.76,7.43-14.71,17.41-14.71s17.41,5.95,17.41,14.71c0,8.57-7.44,14.71-17.41,14.71S461.09,455.46,461.09,446.89ZM464.32,481h28.16V591.83H464.32Z" transform="translate(-268.15 -386)"/><path class="cls-3" d="M530.82,444.27h53.89c33.25,0,58.87,10.83,58.87,43.77,0,31.73-25.62,46.12-58.87,46.12H559.18v57.67H530.82Zm50.95,69c21.91,0,33.84-8.39,33.84-25.18,0-17-11.93-22.83-33.84-22.83H559.18v48Zm-2.39,13.95,20.53-15.62,49.93,80.28H618Z" transform="translate(-268.15 -386)"/><path class="cls-3" d="M675.56,444.27h28.36V591.83H675.56Z" transform="translate(-268.15 -386)"/><path class="cls-3" d="M733.56,572.93l16.52-18c11.45,10.06,26.8,16.83,41.67,16.83,18,0,27.87-7.54,27.87-19,0-12.14-10.32-16-24.84-21.71l-21.86-8.76c-15.75-6-32.32-17.55-32.32-39.12,0-23.51,22.49-41.61,53.69-41.61,18.68,0,36.77,7.13,49.29,18.82L829,477c-10.18-8-21-12.68-34.72-12.68-15.16,0-25,6.54-25,17.33,0,11.59,12.18,15.88,25.43,20.89l21.56,8.35c19,7.31,32.33,18.41,32.33,39.8,0,23.92-21.52,43.86-57.41,43.86C769.55,594.54,748.71,586.69,733.56,572.93Z" transform="translate(-268.15 -386)"/></svg>