<svg id="svg" xmlns="http://www.w3.org/2000/svg" xmlns:xlink="http://www.w3.org/1999/xlink" width="400" height="400" viewBox="0, 0, 400,400" version="1.1"><g id="svgg"><path id="path0" d="M118.750 2.432 C 98.169 5.073,95.274 5.944,92.340 10.374 L 90.234 13.555 89.969 32.449 L 89.704 51.344 84.501 51.000 C 68.320 49.931,58.433 68.442,68.229 81.463 C 76.552 92.526,94.206 91.110,100.402 78.884 C 102.299 75.140,102.344 74.649,102.344 57.448 C 102.344 47.766,102.607 39.842,102.930 39.839 C 103.252 39.836,111.777 38.784,121.875 37.500 C 131.973 36.216,140.674 35.164,141.211 35.161 C 141.929 35.158,142.188 37.276,142.188 43.164 L 142.188 51.172 135.681 51.172 C 111.164 51.172,109.358 86.892,133.776 88.852 C 139.955 89.348,145.567 87.184,149.559 82.766 C 154.425 77.379,154.688 75.246,154.688 41.039 C 154.688 -3.802,156.038 -2.352,118.750 2.432 M300.000 2.394 C 279.394 5.083,276.518 5.952,273.590 10.373 L 271.484 13.554 271.229 32.463 L 270.974 51.373 266.123 50.984 C 248.995 49.609,238.925 70.019,250.441 82.766 C 258.849 92.072,274.275 90.730,280.839 80.121 L 283.203 76.300 283.439 58.072 C 283.568 48.046,283.920 39.842,284.220 39.839 C 284.520 39.836,293.027 38.784,303.125 37.500 C 313.223 36.216,321.924 35.164,322.461 35.161 C 323.180 35.158,323.438 37.300,323.438 43.285 L 323.438 51.414 318.945 51.011 C 306.634 49.905,297.656 57.880,297.656 69.922 C 297.656 91.976,328.631 96.433,334.826 75.269 C 335.809 71.913,335.967 66.059,335.776 40.113 C 335.453 -3.820,336.792 -2.408,300.000 2.394 M142.188 17.416 L 142.188 22.333 124.805 24.489 C 115.244 25.675,106.279 26.842,104.883 27.081 L 102.344 27.518 102.344 22.719 C 102.344 16.839,100.732 17.508,121.341 14.830 C 144.497 11.820,142.188 11.534,142.188 17.416 M323.438 17.416 L 323.438 22.333 306.055 24.489 C 296.494 25.675,287.529 26.842,286.133 27.081 L 283.594 27.518 283.594 22.353 C 283.594 18.761,283.891 17.177,284.570 17.151 C 285.107 17.132,293.105 16.117,302.344 14.897 C 325.762 11.804,323.438 11.527,323.438 17.416 M29.153 25.770 C 26.692 26.785,25.781 28.991,25.781 33.933 L 25.781 38.281 21.058 38.281 C 15.432 38.281,12.500 40.422,12.500 44.531 C 12.500 48.640,15.432 50.781,21.058 50.781 L 25.781 50.781 25.781 55.469 C 25.781 66.691,37.320 66.663,38.132 55.439 L 38.469 50.781 42.708 50.781 C 47.982 50.781,50.781 48.511,50.781 44.233 C 50.781 40.342,47.937 38.281,42.567 38.281 L 38.469 38.281 38.128 33.563 C 37.656 27.039,33.925 23.800,29.153 25.770 M365.640 25.985 C 363.014 27.339,361.744 30.128,361.730 34.570 L 361.719 38.281 357.527 38.281 C 352.058 38.281,349.219 40.315,349.219 44.233 C 349.219 48.511,352.018 50.781,357.292 50.781 L 361.531 50.781 361.868 55.439 C 362.680 66.663,374.219 66.691,374.219 55.469 L 374.219 50.781 378.942 50.781 C 384.568 50.781,387.500 48.640,387.500 44.531 C 387.500 40.422,384.568 38.281,378.942 38.281 L 374.219 38.281 374.219 33.680 C 374.219 26.892,370.445 23.507,365.640 25.985 M87.926 65.199 C 93.200 70.472,86.961 79.256,80.425 75.758 C 79.599 75.316,78.364 73.873,77.681 72.553 C 74.438 66.281,82.920 60.193,87.926 65.199 M139.566 65.133 C 141.205 66.543,141.719 67.685,141.719 69.922 C 141.719 75.673,135.182 78.547,130.973 74.647 C 124.740 68.870,133.121 59.590,139.566 65.133 M269.027 65.197 C 275.260 70.974,266.879 80.254,260.434 74.711 C 257.417 72.116,257.417 67.728,260.434 65.133 C 263.211 62.745,266.406 62.769,269.027 65.197 M319.575 64.086 C 320.401 64.528,321.636 65.970,322.319 67.291 C 325.562 73.562,317.080 79.651,312.074 74.645 C 306.800 69.371,313.039 60.588,319.575 64.086 M348.961 91.066 C 339.214 94.179,337.073 98.983,334.013 124.609 C 331.248 147.767,332.160 146.228,318.797 150.299 C 311.107 152.642,311.132 152.650,313.187 148.621 C 325.353 124.775,301.387 96.706,275.329 104.281 C 255.148 110.148,245.543 134.614,256.697 151.741 C 259.043 155.343,259.057 155.181,256.350 155.722 C 254.224 156.147,216.835 182.319,212.336 186.531 C 207.500 191.059,207.031 193.456,207.031 213.663 L 207.031 232.031 174.219 232.031 L 141.406 232.031 141.406 212.557 L 141.406 193.082 157.617 192.830 C 176.886 192.531,180.193 191.286,184.984 182.534 C 187.033 178.791,187.447 133.382,185.479 128.229 C 179.171 111.711,155.325 112.095,149.631 128.806 C 148.779 131.307,148.437 135.511,148.437 143.499 L 148.438 154.688 141.940 154.688 L 135.442 154.688 138.229 149.073 C 151.649 122.036,122.308 93.030,95.128 106.463 C 79.364 114.253,72.715 133.765,80.592 149.117 L 83.450 154.688 74.229 154.688 L 65.007 154.688 67.741 146.289 C 73.975 127.137,64.043 112.797,47.065 116.438 C 37.218 118.550,35.514 121.183,26.603 148.047 C 17.006 176.979,16.894 179.487,24.851 187.410 C 30.179 192.715,31.605 192.969,56.145 192.969 L 77.344 192.969 77.344 212.469 L 77.344 231.969 43.164 232.196 C -1.121 232.489,-0.002 231.989,0.003 251.483 C 0.007 264.991,1.889 268.677,9.590 270.252 L 12.109 270.767 12.500 331.420 C 12.939 399.582,12.411 393.934,18.742 398.242 C 22.036 400.484,46.712 400.965,49.737 398.846 C 53.220 396.407,52.623 390.153,48.739 388.383 C 47.595 387.861,42.338 387.500,35.901 387.500 L 25.000 387.500 25.000 329.297 L 25.000 271.094 200.000 271.094 L 375.000 271.094 375.000 329.297 L 375.000 387.500 221.058 387.500 L 67.116 387.500 65.199 389.418 C 62.662 391.955,62.612 395.974,65.089 398.301 L 66.898 400.000 222.786 400.000 L 378.675 400.000 381.258 398.242 C 387.589 393.934,387.061 399.582,387.500 331.420 L 387.891 270.767 390.410 270.252 C 398.111 268.677,399.993 264.991,399.997 251.483 C 400.002 233.150,398.904 232.422,371.222 232.422 L 351.428 232.422 349.542 234.614 C 347.233 237.298,347.145 239.765,349.264 242.459 L 350.873 244.503 369.382 244.713 L 387.891 244.922 387.891 251.563 L 387.891 258.203 200.000 258.203 L 12.109 258.203 12.109 251.563 L 12.109 244.922 109.865 244.724 L 207.620 244.525 208.576 246.833 C 214.482 261.091,239.791 260.696,243.471 246.289 L 243.919 244.531 288.635 244.531 C 339.002 244.531,336.250 244.873,336.250 238.616 C 336.250 233.697,334.108 232.509,324.607 232.158 L 316.406 231.854 316.406 211.668 L 316.406 191.482 334.961 185.581 C 360.846 177.348,364.902 174.943,367.161 166.481 C 368.342 162.058,374.221 113.955,374.202 108.870 C 374.153 95.805,361.677 87.005,348.961 91.066 M359.315 104.366 C 361.156 105.915,361.719 107.029,361.719 109.123 C 361.719 115.318,355.292 162.970,354.233 164.622 C 353.175 166.274,348.050 168.076,309.961 180.195 C 303.779 182.162,303.906 181.569,303.906 208.377 L 303.906 232.031 284.375 232.031 L 264.844 232.031 264.844 213.398 C 264.844 185.273,263.557 183.779,247.605 193.390 C 233.558 201.854,232.813 203.424,232.813 224.543 C 232.813 244.361,229.661 249.791,221.935 243.290 L 219.531 241.267 219.531 219.548 C 219.531 193.585,216.669 198.649,241.374 180.909 L 260.483 167.188 283.665 167.188 L 306.846 167.188 319.603 163.259 C 342.811 156.113,342.880 156.016,346.501 125.781 C 348.719 107.266,349.268 105.139,352.256 103.515 C 355.198 101.916,356.605 102.086,359.315 104.366 M118.061 117.807 C 130.363 124.234,132.558 139.519,122.570 149.212 C 109.851 161.556,88.251 150.816,90.083 133.059 C 91.484 119.494,106.069 111.542,118.061 117.807 M292.697 117.437 C 307.026 124.847,307.039 145.077,292.720 152.455 C 274.113 162.044,255.761 138.068,269.623 122.280 C 275.115 116.026,285.679 113.809,292.697 117.437 M54.471 129.666 C 58.373 132.045,58.468 134.196,55.122 144.363 C 50.954 157.029,52.766 164.093,60.783 166.428 C 66.879 168.204,152.639 167.075,155.168 165.186 C 160.199 161.429,160.510 160.412,160.964 146.235 C 161.473 130.313,162.990 127.042,169.146 128.587 C 174.015 129.809,174.219 130.859,174.219 154.686 L 174.219 176.349 172.197 178.371 L 170.176 180.392 151.130 180.626 C 126.580 180.927,129.355 177.505,129.070 207.839 L 128.842 232.031 109.343 232.031 L 89.844 232.031 89.844 208.290 C 89.844 186.085,89.747 184.429,88.351 182.704 L 86.859 180.859 61.203 180.469 C 34.040 180.055,34.242 180.083,32.385 176.491 C 30.530 172.905,44.107 131.963,47.922 129.636 C 50.987 127.767,51.360 127.769,54.471 129.666 M252.344 218.750 L 252.344 232.031 248.828 232.031 L 245.313 232.031 245.313 221.824 C 245.313 216.104,245.678 210.933,246.144 210.063 C 246.796 208.844,251.188 205.486,252.148 205.472 C 252.256 205.470,252.344 211.445,252.344 218.750 M61.850 286.409 C 51.976 291.329,51.563 293.063,51.563 329.509 L 51.563 359.849 53.554 363.846 C 60.434 377.652,80.325 377.615,87.722 363.783 C 90.168 359.210,90.451 300.051,88.050 295.228 C 83.159 285.407,71.641 281.530,61.850 286.409 M149.219 285.619 C 145.681 287.149,141.710 290.982,139.580 294.922 C 136.927 299.829,136.946 358.782,139.602 363.746 C 146.634 376.886,165.317 377.741,173.026 365.276 L 175.391 361.453 175.615 330.531 C 175.860 296.741,175.763 295.852,171.245 290.483 C 166.716 285.100,155.926 282.718,149.219 285.619 M234.734 286.224 C 224.555 290.964,224.112 292.861,224.385 330.531 L 224.609 361.453 226.974 365.276 C 234.683 377.741,253.366 376.886,260.398 363.746 C 263.054 358.782,263.073 299.829,260.420 294.922 C 255.227 285.316,244.491 281.681,234.734 286.224 M321.484 285.796 C 317.729 287.560,313.865 291.383,311.950 295.228 C 309.549 300.051,309.832 359.210,312.278 363.783 C 318.552 375.515,334.075 377.761,343.292 368.270 C 348.472 362.936,348.521 362.542,348.271 328.062 L 348.047 297.140 345.682 293.317 C 340.852 285.508,329.564 281.999,321.484 285.796 M75.321 299.279 L 77.344 301.682 77.344 329.417 L 77.344 357.151 75.060 359.435 C 72.623 361.873,70.473 362.275,67.722 360.810 C 64.111 358.887,64.113 358.905,64.087 329.066 L 64.063 300.710 65.980 298.793 C 68.804 295.969,72.707 296.172,75.321 299.279 M161.364 298.793 L 163.281 300.710 163.281 329.299 L 163.281 357.887 161.214 359.803 C 158.583 362.241,155.396 362.253,152.583 359.834 L 150.391 357.949 150.167 329.849 L 149.944 301.749 151.995 299.312 C 154.637 296.172,158.527 295.956,161.364 298.793 M248.005 299.312 L 250.056 301.749 249.833 329.849 L 249.609 357.949 247.417 359.834 C 244.604 362.253,241.417 362.241,238.786 359.803 L 236.719 357.887 236.719 329.299 L 236.719 300.710 238.636 298.793 C 241.473 295.956,245.363 296.172,248.005 299.312 M334.020 298.793 L 335.938 300.710 335.913 329.066 C 335.887 358.905,335.889 358.887,332.278 360.810 C 329.527 362.275,327.377 361.873,324.940 359.435 L 322.656 357.151 322.656 329.417 L 322.656 301.682 324.679 299.279 C 327.293 296.172,331.196 295.969,334.020 298.793 " stroke="none" fill="#fdf6ff" fill-rule="evenodd"></path></g></svg>