<?xml version="1.0" encoding="UTF-8"?>
<svg version="1.1" viewBox="0 0 400 400" xmlns="http://www.w3.org/2000/svg">
<path d="m118.75 2.432c-20.581 2.641-23.476 3.512-26.41 7.942l-2.106 3.181-0.265 18.894-0.265 18.895-5.203-0.344c-16.181-1.069-26.068 17.442-16.272 30.463 8.323 11.063 25.977 9.647 32.173-2.579 1.897-3.744 1.942-4.235 1.942-21.436 0-9.682 0.263-17.606 0.586-17.609 0.322-3e-3 8.847-1.055 18.945-2.339s18.799-2.336 19.336-2.339c0.718-3e-3 0.977 2.115 0.977 8.003v8.008h-6.507c-24.517 0-26.323 35.72-1.905 37.68 6.179 0.496 11.791-1.668 15.783-6.086 4.866-5.387 5.129-7.52 5.129-41.727 0-44.841 1.35-43.391-35.938-38.607m181.25-0.038c-20.606 2.689-23.482 3.558-26.41 7.979l-2.106 3.181-0.255 18.909-0.255 18.91-4.851-0.389c-17.128-1.375-27.198 19.035-15.682 31.782 8.408 9.306 23.834 7.964 30.398-2.645l2.364-3.821 0.236-18.228c0.129-10.026 0.481-18.23 0.781-18.233s8.807-1.055 18.905-2.339 18.799-2.336 19.336-2.339c0.719-3e-3 0.977 2.139 0.977 8.124v8.129l-4.493-0.403c-12.311-1.106-21.289 6.869-21.289 18.911 0 22.054 30.975 26.511 37.17 5.347 0.983-3.356 1.141-9.21 0.95-35.156-0.323-43.933 1.016-42.521-35.776-37.719m-157.81 15.022v4.917l-17.383 2.156c-9.561 1.186-18.526 2.353-19.922 2.592l-2.539 0.437v-4.799c0-5.88-1.612-5.211 18.997-7.889 23.156-3.01 20.847-3.296 20.847 2.586m181.25 0v4.917l-17.383 2.156c-9.561 1.186-18.526 2.353-19.922 2.592l-2.539 0.437v-5.165c0-3.592 0.297-5.176 0.976-5.202 0.537-0.019 8.535-1.034 17.774-2.254 23.418-3.093 21.094-3.37 21.094 2.519m-294.28 8.354c-2.461 1.015-3.372 3.221-3.372 8.163v4.348h-4.723c-5.626 0-8.558 2.141-8.558 6.25s2.932 6.25 8.558 6.25h4.723v4.688c0 11.222 11.539 11.194 12.351-0.03l0.337-4.658h4.239c5.274 0 8.073-2.27 8.073-6.548 0-3.891-2.844-5.952-8.214-5.952h-4.098l-0.341-4.718c-0.472-6.524-4.203-9.763-8.975-7.793m336.49 0.215c-2.626 1.354-3.896 4.143-3.91 8.585l-0.011 3.711h-4.192c-5.469 0-8.308 2.034-8.308 5.952 0 4.278 2.799 6.548 8.073 6.548h4.239l0.337 4.658c0.812 11.224 12.351 11.252 12.351 0.03v-4.688h4.723c5.626 0 8.558-2.141 8.558-6.25s-2.932-6.25-8.558-6.25h-4.723v-4.601c0-6.788-3.774-10.173-8.579-7.695m-277.71 39.214c5.274 5.273-0.965 14.057-7.501 10.559-0.826-0.442-2.061-1.885-2.744-3.205-3.243-6.272 5.239-12.36 10.245-7.354m51.64-0.066c1.639 1.41 2.153 2.552 2.153 4.789 0 5.751-6.537 8.625-10.746 4.725-6.233-5.777 2.148-15.057 8.593-9.514m129.46 0.064c6.233 5.777-2.148 15.057-8.593 9.514-3.017-2.595-3.017-6.983 0-9.578 2.777-2.388 5.972-2.364 8.593 0.064m50.548-1.111c0.826 0.442 2.061 1.884 2.744 3.205 3.243 6.271-5.239 12.36-10.245 7.354-5.274-5.274 0.965-14.057 7.501-10.559m29.386 26.98c-9.747 3.113-11.888 7.917-14.948 33.543-2.765 23.158-1.853 21.619-15.216 25.69-7.69 2.343-7.665 2.351-5.61-1.678 12.166-23.846-11.8-51.915-37.858-44.34-20.181 5.867-29.786 30.333-18.632 47.46 2.346 3.602 2.36 3.44-0.347 3.981-2.126 0.425-39.515 26.597-44.014 30.809-4.836 4.528-5.305 6.925-5.305 27.132v18.368h-32.812-32.813v-19.474-19.475l16.211-0.252c19.269-0.299 22.576-1.544 27.367-10.296 2.049-3.743 2.463-49.152 0.495-54.305-6.308-16.518-30.154-16.134-35.848 0.577-0.852 2.501-1.194 6.705-1.194 14.693l1e-3 11.189h-6.498-6.498l2.787-5.615c13.42-27.037-15.921-56.043-43.101-42.61-15.764 7.79-22.413 27.302-14.536 42.654l2.858 5.571h-9.221-9.222l2.734-8.399c6.234-19.152-3.698-33.492-20.676-29.851-9.847 2.112-11.551 4.745-20.462 31.609-9.597 28.932-9.709 31.44-1.752 39.363 5.328 5.305 6.754 5.559 31.294 5.559h21.199v19.5 19.5l-34.18 0.227c-44.285 0.293-43.166-0.207-43.161 19.287 4e-3 13.508 1.886 17.194 9.587 18.769l2.519 0.515 0.391 60.653c0.439 68.162-0.089 62.514 6.242 66.822 3.294 2.242 27.97 2.723 30.995 0.604 3.483-2.439 2.886-8.693-0.998-10.463-1.144-0.522-6.401-0.883-12.838-0.883h-10.901v-58.203-58.203h175 175v58.203 58.203h-153.94-153.94l-1.917 1.918c-2.537 2.537-2.587 6.556-0.11 8.883l1.809 1.699h155.89 155.89l2.583-1.758c6.331-4.308 5.803 1.34 6.242-66.822l0.391-60.653 2.519-0.515c7.701-1.575 9.583-5.261 9.587-18.769 5e-3 -18.333-1.093-19.061-28.775-19.061h-19.794l-1.886 2.192c-2.309 2.684-2.397 5.151-0.278 7.845l1.609 2.044 18.509 0.21 18.509 0.209v6.641 6.64h-187.89-187.89v-6.64-6.641l195.51-0.397 0.956 2.308c5.906 14.258 31.215 13.863 34.895-0.544l0.448-1.758h44.716c50.367 0 47.615 0.342 47.615-5.915 0-4.919-2.142-6.107-11.643-6.458l-8.201-0.304v-20.186-20.186l18.555-5.901c25.885-8.233 29.941-10.638 32.2-19.1 1.181-4.423 7.06-52.526 7.041-57.611-0.049-13.065-12.525-21.865-25.241-17.804m10.354 13.3c1.841 1.549 2.404 2.663 2.404 4.757 0 6.195-6.427 53.847-7.486 55.499-1.058 1.652-6.183 3.454-44.272 15.573-6.182 1.967-6.055 1.374-6.055 28.182v23.654h-19.531-19.531v-18.633c0-28.125-1.287-29.619-17.239-20.008-14.047 8.464-14.792 10.034-14.792 31.153 0 19.818-3.152 25.248-10.878 18.747l-2.404-2.023v-21.719c0-25.963-2.862-20.899 21.843-38.639l19.109-13.721h23.182 23.181l12.757-3.929c23.208-7.146 23.277-7.243 26.898-37.478 2.218-18.515 2.767-20.642 5.755-22.266 2.942-1.599 4.349-1.429 7.059 0.851m-241.25 13.441c12.302 6.427 14.497 21.712 4.509 31.405-12.719 12.344-34.319 1.604-32.487-16.153 1.401-13.565 15.986-21.517 27.978-15.252m174.64-0.37c14.329 7.41 14.342 27.64 0.023 35.018-18.607 9.589-36.959-14.387-23.097-30.175 5.492-6.254 16.056-8.471 23.074-4.843m-238.23 12.229c3.902 2.379 3.997 4.53 0.651 14.697-4.168 12.666-2.356 19.73 5.661 22.065 6.096 1.776 91.856 0.647 94.385-1.242 5.031-3.757 5.342-4.774 5.796-18.951 0.509-15.922 2.026-19.193 8.182-17.648 4.869 1.222 5.073 2.272 5.073 26.099v21.663l-4.043 4.043-19.046 0.234c-24.55 0.301-21.775-3.121-22.06 27.213l-0.228 24.192h-19.499-19.499v-23.741c0-22.205-0.097-23.861-1.493-25.586l-1.492-1.845-25.656-0.39c-27.163-0.414-26.961-0.386-28.818-3.978-1.855-3.586 11.722-44.528 15.537-46.855 3.065-1.869 3.438-1.867 6.549 0.03m197.87 89.084v13.281h-3.516-3.515v-10.207c0-5.72 0.365-10.891 0.831-11.761 0.652-1.219 5.044-4.577 6.004-4.591 0.108-2e-3 0.196 5.973 0.196 13.278m-190.49 67.659c-9.874 4.92-10.287 6.654-10.287 43.1v30.34l1.991 3.997c6.88 13.806 26.771 13.769 34.168-0.063 2.446-4.573 2.729-63.732 0.328-68.555-4.891-9.821-16.409-13.698-26.2-8.819m87.369-0.79c-3.538 1.53-7.509 5.363-9.639 9.303-2.653 4.907-2.634 63.86 0.022 68.824 7.032 13.14 25.715 13.995 33.424 1.53l2.365-3.823 0.224-30.922c0.245-33.79 0.148-34.679-4.37-40.048-4.529-5.383-15.319-7.765-22.026-4.864m85.515 0.605c-10.179 4.74-10.622 6.637-10.349 44.307l0.224 30.922 2.365 3.823c7.709 12.465 26.392 11.61 33.424-1.53 2.656-4.964 2.675-63.917 0.022-68.824-5.193-9.606-15.929-13.241-25.686-8.698m86.75-0.428c-3.755 1.764-7.619 5.587-9.534 9.432-2.401 4.823-2.118 63.982 0.328 68.555 6.274 11.732 21.797 13.978 31.014 4.487 5.18-5.334 5.229-5.728 4.979-40.208l-0.224-30.922-2.365-3.823c-4.83-7.809-16.118-11.318-24.198-7.521m-246.16 13.483 2.023 2.403v27.735 27.734l-2.284 2.284c-2.437 2.438-4.587 2.84-7.338 1.375-3.611-1.923-3.609-1.905-3.635-31.744l-0.024-28.356 1.917-1.917c2.824-2.824 6.727-2.621 9.341 0.486m86.043-0.486 1.917 1.917v28.589 28.588l-2.067 1.916c-2.631 2.438-5.818 2.45-8.631 0.031l-2.192-1.885-0.224-28.1-0.223-28.1 2.051-2.437c2.642-3.14 6.532-3.356 9.369-0.519m86.641 0.519 2.051 2.437-0.223 28.1-0.224 28.1-2.192 1.885c-2.813 2.419-6 2.407-8.631-0.031l-2.067-1.916v-28.588-28.589l1.917-1.917c2.837-2.837 6.727-2.621 9.369 0.519m86.015-0.519 1.918 1.917-0.025 28.356c-0.026 29.839-0.024 29.821-3.635 31.744-2.751 1.465-4.901 1.063-7.338-1.375l-2.284-2.284v-27.734-27.735l2.023-2.403c2.614-3.107 6.517-3.31 9.341-0.486" fill="#fdf6ff" fill-rule="evenodd"/>
</svg>
