<?xml version="1.0" encoding="UTF-8"?>
<svg id="svg" version="1.1" xmlns="http://www.w3.org/2000/svg" xmlns:xlink="http://www.w3.org/1999/xlink" width="400" height="400" viewBox="0, 0, 400,400"><g id="svgg"><path id="path0" d="M74.671 1.423 C 45.083 9.088,17.060 26.199,10.069 40.868 C 4.630 52.280,5.300 53.855,39.250 109.511 C 60.329 144.066,70.804 163.182,73.832 172.621 C 75.524 177.894,74.747 178.142,82.518 169.850 C 101.564 149.527,119.520 141.456,148.609 140.141 C 152.877 139.948,156.369 139.673,156.369 139.529 C 156.369 139.385,154.948 136.724,153.211 133.616 C 148.296 124.822,145.699 118.099,137.232 92.252 C 111.180 12.727,108.895 7.161,100.524 2.836 C 94.606 -0.221,83.383 -0.834,74.671 1.423 M377.765 130.167 C 377.754 130.734,378.318 133.633,379.019 136.609 C 384.553 160.120,377.031 174.450,344.070 203.196 C 321.148 223.187,318.242 226.811,318.723 234.816 C 319.281 244.111,323.165 248.275,345.242 263.248 C 374.133 282.843,378.087 291.027,365.059 304.265 C 356.259 313.207,349.546 316.560,316.837 328.349 C 279.791 341.702,272.738 346.785,280.880 354.263 C 287.512 360.355,296.714 363.593,328.551 371.043 C 342.870 374.393,359.051 380.136,360.422 382.355 C 360.794 382.957,356.122 384.099,344.070 386.350 C 333.067 388.405,304.636 388.921,284.041 387.440 C 272.215 386.590,266.467 386.050,242.407 383.530 L 235.619 382.820 233.762 368.716 C 230.506 343.994,230.462 342.958,231.932 325.590 C 233.476 307.339,233.677 308.469,227.125 298.561 C 216.075 281.855,203.851 260.275,186.558 226.947 C 174.159 203.051,173.765 202.442,169.452 200.467 C 153.746 193.277,120.768 206.337,115.489 221.838 C 114.469 224.834,124.632 257.133,145.105 315.959 C 152.007 335.790,150.487 333.848,163.062 338.899 C 182.823 346.836,197.098 357.852,220.105 382.919 C 224.706 387.931,227.818 390.221,227.818 388.593 C 227.818 387.249,216.029 360.172,202.187 329.722 C 191.043 305.210,189.166 301.646,186.051 299.093 C 179.926 294.075,178.946 283.405,184.402 281.145 C 189.715 278.944,196.793 287.604,196.037 295.383 C 195.605 299.829,195.920 300.611,222.013 360.016 C 232.210 383.231,231.826 382.165,230.161 382.600 C 225.446 383.833,233.512 390.259,243.045 392.863 C 262.877 398.282,308.775 401.421,331.479 398.911 C 357.532 396.031,379.618 391.354,381.209 388.381 C 386.463 378.563,364.843 365.875,330.600 358.683 C 322.273 356.933,303.322 351.703,301.088 350.538 C 299.792 349.862,300.952 349.271,316.608 342.634 C 371.709 319.274,392.094 304.555,392.094 288.128 C 392.094 277.289,384.381 269.501,363.104 258.856 C 329.821 242.204,328.906 235.097,357.247 213.369 C 384.634 192.373,391.881 174.815,385.246 145.534 C 383.563 138.107,377.837 126.345,377.765 130.167 M142.437 146.456 C 118.631 148.756,94.330 162.600,80.318 181.845 L 78.612 184.187 82.051 196.676 C 86.896 214.277,87.888 216.151,94.702 220.572 C 96.378 221.659,98.604 223.611,99.647 224.910 C 101.874 227.681,107.357 230.572,111.420 231.118 C 114.463 231.527,114.431 231.573,113.587 227.909 C 111.036 216.849,121.759 205.507,141.274 198.624 C 156.247 193.343,166.755 194.050,174.112 200.831 L 176.717 203.232 178.826 200.152 C 181.922 195.632,182.580 192.053,181.359 186.372 C 180.821 183.867,180.381 180.634,180.381 179.187 C 180.381 175.752,179.420 174.030,170.437 161.347 C 166.330 155.549,162.240 149.685,161.349 148.316 L 159.727 145.827 153.509 145.907 C 150.089 145.951,145.107 146.198,142.437 146.456 " stroke="none" fill="#fdf6ff" fill-rule="evenodd"></path></g></svg>