<svg width="26" height="25" viewBox="0 0 26 25" fill="none" xmlns="http://www.w3.org/2000/svg">
<!-- <path d="M24.3088 12.444C24.3088 18.6511 19.277 23.683 13.0698 23.683C6.86273 23.683 1.83086 18.6511 1.83086 12.444C1.83086 6.2369 6.86273 1.20504 13.0698 1.20504C19.277 1.20504 24.3088 6.2369 24.3088 12.444Z" stroke="white" stroke-width="2.4"/> -->
<path d="M11.3818 17.4842C15.5694 17.4842 17.8591 14.0142 17.8591 11.0069C17.8591 10.9077 17.8591 10.8086 17.8544 10.7142C18.2982 10.3931 18.6853 9.99183 18.9922 9.53388C18.5862 9.71329 18.1471 9.83603 17.6844 9.89269C18.1565 9.60942 18.5153 9.16564 18.6853 8.63216C18.2462 8.89182 17.76 9.08066 17.2406 9.18452C16.8252 8.74074 16.2351 8.46692 15.5788 8.46692C14.323 8.46692 13.3033 9.48667 13.3033 10.7425C13.3033 10.9219 13.3221 11.0966 13.3646 11.2618C11.4715 11.1674 9.7955 10.2609 8.67188 8.88237C8.47832 9.21757 8.36501 9.60942 8.36501 10.0249C8.36501 10.8133 8.7663 11.512 9.38004 11.918C9.00708 11.9086 8.65772 11.8047 8.35085 11.6348C8.35085 11.6442 8.35085 11.6537 8.35085 11.6631C8.35085 12.7678 9.13455 13.6837 10.1779 13.8962C9.98906 13.9481 9.78606 13.9764 9.57833 13.9764C9.43198 13.9764 9.29034 13.9623 9.14871 13.9339C9.4367 14.8404 10.277 15.4966 11.2732 15.5155C10.4942 16.1245 9.51223 16.488 8.44527 16.488C8.26115 16.488 8.08174 16.4786 7.90234 16.455C8.89849 17.1065 10.0976 17.4842 11.3818 17.4842Z" fill="white"/>
</svg>
